<svg xmlns="http://www.w3.org/2000/svg" xmlns:xlink="http://www.w3.org/1999/xlink" width="234.394" height="234.393" viewBox="0 0 234.394 234.393"><defs><style>.a{fill:#04accb;}.b{fill:url(#a);}.c{fill:#3b3b3b;}.d{fill:url(#b);}.e{fill:url(#h);}.f{fill:url(#i);}</style><linearGradient id="a" x1="0.5" x2="0.5" y2="1" gradientUnits="objectBoundingBox"><stop offset="0" stop-color="#2af598"/><stop offset="1" stop-color="#0891d9"/></linearGradient><linearGradient id="b" x1="0.5" x2="0.5" y2="1" gradientUnits="objectBoundingBox"><stop offset="0" stop-color="#2af598"/><stop offset="1" stop-color="#058da7"/></linearGradient><linearGradient id="h" x1="0.5" x2="0.5" y2="1" gradientUnits="objectBoundingBox"><stop offset="0" stop-color="#08badb"/><stop offset="1" stop-color="#2af598"/></linearGradient><linearGradient id="i" x1="0.5" x2="0.5" y2="1" gradientUnits="objectBoundingBox"><stop offset="0" stop-color="#2af598"/><stop offset="1" stop-color="#069fbc"/></linearGradient></defs><g transform="translate(-846.495 -2487.276)"><g transform="translate(846.495 2487.276)"><path class="a" d="M103.627,247.253A15.626,15.626,0,1,0,88,231.627,15.626,15.626,0,0,0,103.627,247.253Zm0-23.439a7.813,7.813,0,1,1-7.813,7.813A7.813,7.813,0,0,1,103.627,223.814Z" transform="translate(-45.028 -110.524)"/><path class="b" d="M103.627,247.253A15.626,15.626,0,1,0,88,231.627,15.626,15.626,0,0,0,103.627,247.253Zm0-23.439a7.813,7.813,0,1,1-7.813,7.813A7.813,7.813,0,0,1,103.627,223.814Z" transform="translate(-45.028 -110.524)"/><g transform="translate(0 0)"><path class="c" d="M218.767,15.627H144.542V3.907A3.907,3.907,0,0,0,140.636,0H3.907A3.864,3.864,0,0,0,0,3.821c0,.029,0,.058,0,.086V203.141a3.907,3.907,0,0,0,2.672,3.7L84.71,234.191a3.844,3.844,0,0,0,1.234.2,3.907,3.907,0,0,0,3.907-3.907V207.048h13.892a15.575,15.575,0,0,0,13.454,7.813h101.57a15.626,15.626,0,0,0,15.626-15.626V160.169a15.626,15.626,0,0,0-15.626-15.626h-65.24l-8.985-6V107.568l8.985-6h65.239a15.626,15.626,0,0,0,15.626-15.626V31.253A15.626,15.626,0,0,0,218.767,15.627Zm7.813,15.626V46.879h-117.2V31.253A7.813,7.813,0,0,1,117.2,23.44h101.57A7.813,7.813,0,0,1,226.58,31.253ZM82.038,225.065,7.814,200.325V9.33L82.038,34.07Zm70.317-72.709h66.411a7.813,7.813,0,0,1,7.813,7.813v39.066a7.813,7.813,0,0,1-7.813,7.813H117.2a7.813,7.813,0,0,1-7.813-7.813V160.169a7.813,7.813,0,0,1,7.813-7.813h11.72a3.907,3.907,0,0,0,3.907-3.907v-8.329L150.187,151.7A3.934,3.934,0,0,0,152.356,152.356Zm-15.626-19.017-5.645-3.766a3.907,3.907,0,0,0-6.075,3.25v11.72H117.2a15.626,15.626,0,0,0-15.626,15.626v39.066H89.851V31.253a3.907,3.907,0,0,0-2.672-3.7L27.975,7.814H136.729v7.813H117.2A15.626,15.626,0,0,0,101.57,31.253V85.945A15.626,15.626,0,0,0,117.2,101.571h7.813v11.72a3.907,3.907,0,0,0,6.075,3.25l5.645-3.766Zm82.038-39.581H152.356a3.932,3.932,0,0,0-2.168.656l-17.365,11.579V97.665a3.907,3.907,0,0,0-3.907-3.907H117.2a7.813,7.813,0,0,1-7.813-7.813V54.692h117.2V85.945A7.813,7.813,0,0,1,218.767,93.758Z" transform="translate(0 0)"/><path class="d" d="M248,160h93.757v7.813H248Z" transform="translate(-126.897 -81.87)"/><path class="d" d="M264,128h7.813v7.813H264Z" transform="translate(-135.084 -65.496)"/><path class="d" d="M296,128h70.318v7.813H296Z" transform="translate(-151.458 -65.496)"/><path class="d" d="M240,64h7.813v7.813H240Z" transform="translate(-122.804 -32.748)"/><path class="d" d="M272,64h7.813v7.813H272Z" transform="translate(-139.177 -32.748)"/><path class="d" d="M304,64h7.813v7.813H304Z" transform="translate(-155.551 -32.748)"/><path class="e" d="M256.959,330.345l-7.813,7.813a3.907,3.907,0,0,0,0,5.524l7.813,7.813,5.524-5.524-5.051-5.051,5.051-5.051Z" transform="translate(-126.898 -169.032)"/><path class="f" d="M319.868,351.5l7.813-7.813a3.907,3.907,0,0,0,0-5.524l-7.813-7.813-5.524,5.524,5.051,5.051-5.051,5.051Z" transform="translate(-160.844 -169.032)"/></g><path class="e" d="M280.407,348.88l7.818-23.44,7.412,2.472-7.818,23.44Z" transform="translate(-143.479 -166.522)"/><g transform="translate(121.104 167.982)"><path class="e" d="M360,344h7.813v7.813H360Z" transform="translate(-305.309 -344.001)"/><path class="e" d="M248,392h7.813v7.813H248Z" transform="translate(-248.001 -368.562)"/><path class="e" d="M280,392h78.131v7.813H280Z" transform="translate(-264.374 -368.562)"/><path class="e" d="M392,344h7.813v7.813H392Z" transform="translate(-321.683 -344.001)"/><path class="e" d="M424,344h7.813v7.813H424Z" transform="translate(-338.056 -344.001)"/></g></g></g></svg>