<svg xmlns="http://www.w3.org/2000/svg" width="589.562" height="362" viewBox="0 0 589.562 362"><defs><style>.a,.b{fill:#fff;}.a,.d{stroke:#707070;}.a,.d,.e{stroke-width:3px;}.c,.d{fill:#707070;}.e{fill:#2c2828;stroke:#2c2828;}.f{fill:#1f1c1c;}.g{fill:#40b286;}.h{fill:#114a70;}.i,.l{fill:none;}.i{stroke:#114a70;stroke-width:4px;}.j{fill:#42b78a;}.k{stroke:none;}</style></defs><g transform="translate(0 0)"><g class="a" transform="translate(11)"><rect class="k" width="552" height="304" rx="8"/><rect class="l" x="1.5" y="1.5" width="549" height="301" rx="6.5"/></g><g class="a" transform="translate(11)"><rect class="k" width="552" height="304" rx="8"/><rect class="l" x="1.5" y="1.5" width="549" height="301" rx="6.5"/></g><g class="a" transform="translate(11)"><rect class="k" width="552" height="304" rx="8"/><rect class="l" x="1.5" y="1.5" width="549" height="301" rx="6.5"/></g><path class="b" d="M580.765,301.584H8.417A5.924,5.924,0,0,1,2.5,295.667V8.417A5.924,5.924,0,0,1,8.417,2.5H580.765a5.924,5.924,0,0,1,5.917,5.917v287.25A5.924,5.924,0,0,1,580.765,301.584Z" transform="translate(0.19 0.19)"/><path class="c" d="M8.607,5.379A3.231,3.231,0,0,0,5.379,8.607v287.25a3.231,3.231,0,0,0,3.228,3.228H580.955a3.231,3.231,0,0,0,3.228-3.228V8.607a3.231,3.231,0,0,0-3.228-3.228H8.607M8.607,0H580.955a8.607,8.607,0,0,1,8.607,8.607v287.25a8.607,8.607,0,0,1-8.607,8.607H8.607A8.607,8.607,0,0,1,0,295.857V8.607A8.607,8.607,0,0,1,8.607,0Z"/><g class="d" transform="translate(216 304)"><rect class="k" width="141" height="46"/><rect class="l" x="1.5" y="1.5" width="138" height="43"/></g><g class="d" transform="translate(216 304)"><rect class="k" width="141" height="46"/><rect class="l" x="1.5" y="1.5" width="138" height="43"/></g><g class="d" transform="translate(216 304)"><rect class="k" width="141" height="46"/><rect class="l" x="1.5" y="1.5" width="138" height="43"/></g><g class="d" transform="translate(216 304)"><rect class="k" width="141" height="46"/><rect class="l" x="1.5" y="1.5" width="138" height="43"/></g><g class="d" transform="translate(216 304)"><rect class="k" width="141" height="46"/><rect class="l" x="1.5" y="1.5" width="138" height="43"/></g><g class="d" transform="translate(216 304)"><rect class="k" width="141" height="46"/><rect class="l" x="1.5" y="1.5" width="138" height="43"/></g><g class="e" transform="translate(216 304)"><rect class="k" width="141" height="46"/><rect class="l" x="1.5" y="1.5" width="138" height="43"/></g><g class="d" transform="translate(166 350)"><rect class="k" width="241" height="12"/><rect class="l" x="1.5" y="1.5" width="238" height="9"/></g><path class="f" d="M0,1045Z" transform="translate(344.303 -760.982)"/></g><g transform="translate(1108 -1790)"><path class="g" d="M0,0H546.221V263.533H0Z" transform="translate(-1086.087 1810.371)"/><path class="h" d="M0,0H546.221V15.607H0Z" transform="translate(-1086.087 1810.371)"/><rect class="b" width="115.89" height="8.348" rx="4.174" transform="translate(-1002.243 1920.835)"/><rect class="b" width="139.214" height="8.348" rx="4.174" transform="translate(-1002.243 1939.104)"/><rect class="b" width="157.949" height="8.348" rx="4.174" transform="translate(-1002.243 1901.49)"/><rect class="b" width="33.271" height="4.839" rx="2.419" transform="translate(-661.566 1816.299)"/><rect class="g" width="33.271" height="4.839" rx="2.419" transform="translate(-603.129 1816.299)"/><rect class="h" width="53.336" height="12.363" rx="6.181" transform="translate(-1003.412 1978.318)"/><rect class="b" width="33.271" height="4.839" rx="2.419" transform="translate(-720.003 1816.299)"/><g transform="translate(-779.893 1869.171)"><path class="h" d="M76.97,0H15.395A15.4,15.4,0,0,0,0,15.395V76.97A15.4,15.4,0,0,0,15.395,92.364H76.97A15.4,15.4,0,0,0,92.364,76.97V15.395A15.4,15.4,0,0,0,76.97,0Z" transform="translate(36.34 21.483) rotate(7)"/><path class="i" d="M102.9,0H20.581A20.582,20.582,0,0,0,0,20.581V102.9a20.582,20.582,0,0,0,20.581,20.581H102.9A20.582,20.582,0,0,0,123.479,102.9V20.581A20.581,20.581,0,0,0,102.9,0Z" transform="translate(15.048 8.145) rotate(7)"/><path class="i" d="M102.9,0H20.581A20.582,20.582,0,0,0,0,20.581V102.9a20.582,20.582,0,0,0,20.581,20.581H102.9A20.582,20.582,0,0,0,123.479,102.9V20.581A20.581,20.581,0,0,0,102.9,0Z" transform="translate(30.502 0) rotate(7)"/><path class="j" d="M48.024,55.18c-10.348,0-20.7-4.6-26.215-13.488a24.038,24.038,0,0,1,.69-26.977L12.84,0C-.958,13.182-4.407,33.415,6.286,49.662,16.979,66.216,38.021,73.88,57.682,70.2Z" transform="translate(53.817 32.773) rotate(7)"/></g></g></svg>