<svg xmlns="http://www.w3.org/2000/svg" width="50" height="50" viewBox="0 0 50 50"><defs><style>.a{fill:#707070;}.b{fill:#4e4e4e;}.c{fill:#f0f1f1;}.d{fill:#d1d1d1;}</style></defs><g transform="translate(0 0)"><circle class="a" cx="25" cy="25" r="25" transform="translate(0 0)"/><path class="b" d="M144.261,128.544a2.134,2.134,0,0,1-1.751-.052,17.037,17.037,0,0,0-13.01-1.859c-6.047,1.786-8.517,8.491-8.5,14.75a30.844,30.844,0,0,1,3.031,7.5L138.646,163.5a25.115,25.115,0,0,0,20.288-20.285Z" transform="translate(-109.14 -113.707)"/><path class="c" d="M123.83,109.654A14.344,14.344,0,1,0,138.192,124a14.369,14.369,0,0,0-14.362-14.344Zm9.45,6.77a12.044,12.044,0,0,1,2.68,7.389,29.975,29.975,0,0,0-5.612-.542,22.663,22.663,0,0,0-2.766.161c-.079-.193-.159-.385-.242-.579-.244-.573-.506-1.141-.778-1.7a16.528,16.528,0,0,0,6.719-4.727Zm-9.45-4.525a12.09,12.09,0,0,1,7.994,3.01,13.853,13.853,0,0,1-6.267,4.3,65.576,65.576,0,0,0-4.463-7,12.11,12.11,0,0,1,2.736-.312Zm-5.212,1.176a78.391,78.391,0,0,1,4.44,6.912,45.924,45.924,0,0,1-10.967,1.461h-.119a12.166,12.166,0,0,1,6.646-8.372ZM111.7,124.017c0-.1,0-.2,0-.3h.319A45.419,45.419,0,0,0,124.138,122c.327.639.638,1.288.928,1.937-.136.039-.27.078-.4.122a19.4,19.4,0,0,0-9.911,7.992,12.058,12.058,0,0,1-3.055-8.029Zm12.133,12.117a12.083,12.083,0,0,1-7.4-2.523c.347-.68,2.863-5.209,9.508-7.522l.013,0a50.481,50.481,0,0,1,2.566,9.108,12.067,12.067,0,0,1-4.687.941ZM130.7,134a53.007,53.007,0,0,0-2.325-8.508,15.916,15.916,0,0,1,2.442-.184,18.033,18.033,0,0,1,4.981.7,12.139,12.139,0,0,1-5.1,8Z" transform="translate(-98.739 -98.907)"/><path class="d" d="M255.481,109.654h-.056V111.9h.056a12.09,12.09,0,0,1,7.994,3.01,13.853,13.853,0,0,1-6.267,4.3c-.595-1.088-1.208-2.116-1.783-3.037V122.1l.364-.105c.327.639.638,1.288.928,1.937-.136.039-.27.078-.4.121-.3.1-.6.206-.888.32v2.608a20.534,20.534,0,0,1,2.164-.894l.013,0a50.482,50.482,0,0,1,2.566,9.108,12.064,12.064,0,0,1-4.687.941h-.056v2.208h.056a14.344,14.344,0,1,0,0-28.687Zm3.51,13.2c-.244-.573-.506-1.141-.778-1.7a16.527,16.527,0,0,0,6.719-4.727,12.043,12.043,0,0,1,2.68,7.389A29.973,29.973,0,0,0,262,123.27a22.7,22.7,0,0,0-2.766.161C259.153,123.238,259.074,123.046,258.991,122.852ZM262.353,134a53.007,53.007,0,0,0-2.325-8.508,15.916,15.916,0,0,1,2.442-.184,18.033,18.033,0,0,1,4.981.7A12.139,12.139,0,0,1,262.353,134Z" transform="translate(-230.39 -98.907)"/></g></svg>