<svg xmlns="http://www.w3.org/2000/svg" width="292" height="311" viewBox="0 0 292 311"><defs><style>.a{fill:#ebebeb;}.b,.c{stroke:none;}.c{fill:gray;}</style></defs><g class="a"><path class="b" d="M 146.0000610351562 310 C 136.1656036376953 310 126.3375625610352 308.9447937011719 116.7889099121094 306.8637390136719 C 107.4827499389648 304.8355102539062 98.32871246337891 301.8089904785156 89.58098602294922 297.8682556152344 C 80.99075317382812 293.9985046386719 72.70506286621094 289.20849609375 64.95413970947266 283.63134765625 C 57.27532958984375 278.1061096191406 50.05425262451172 271.7604370117188 43.49148559570312 264.7706298828125 C 36.92763900756836 257.7796936035156 30.96829223632812 250.0868835449219 25.77898406982422 241.9058837890625 C 20.53932952880859 233.6454925537109 16.0389461517334 224.8146209716797 12.40283012390137 215.6585388183594 C 8.699176788330078 206.3323516845703 5.85463809967041 196.5724639892578 3.948253393173218 186.6499938964844 C 1.991945624351501 176.4676971435547 1.000022530555725 165.9873046875 1.000022530555725 155.5 C 1.000022530555725 145.0126953125 1.991945624351501 134.5323028564453 3.948253393173218 124.3499984741211 C 5.85463809967041 114.4275360107422 8.699176788330078 104.6676559448242 12.40283012390137 95.34146118164062 C 16.0389461517334 86.18538665771484 20.53932952880859 77.35449981689453 25.77898406982422 69.0941162109375 C 30.96829223632812 60.91311645507812 36.92763900756836 53.22030639648438 43.49148559570312 46.22938537597656 C 50.05425262451172 39.23957824707031 57.27532958984375 32.89388275146484 64.95413970947266 27.36865425109863 C 72.70506286621094 21.79150009155273 80.99075317382812 17.00149917602539 89.58098602294922 13.1317310333252 C 98.32871246337891 9.190999984741211 107.4827499389648 6.16450023651123 116.7889099121094 4.136269092559814 C 126.3375625610352 2.055192232131958 136.1656036376953 1 146.0000610351562 1 C 155.8345184326172 1 165.6625671386719 2.055192232131958 175.2112121582031 4.136269092559814 C 184.5173645019531 6.16450023651123 193.6714477539062 9.190999984741211 202.4191436767578 13.1317310333252 C 211.0094146728516 17.00149917602539 219.2951049804688 21.79150009155273 227.0460205078125 27.36865425109863 C 234.7247924804688 32.89388275146484 241.9458618164062 39.23957824707031 248.5086822509766 46.22938537597656 C 255.0725250244141 53.22030639648438 261.0318603515625 60.91311645507812 266.22119140625 69.0941162109375 C 271.4608154296875 77.35446166992188 275.9612121582031 86.18538665771484 279.5973205566406 95.34146118164062 C 283.3009948730469 104.6676559448242 286.1455078125 114.4275360107422 288.0519104003906 124.3499984741211 C 290.0082092285156 134.5323028564453 291.0001525878906 145.0126953125 291.0001525878906 155.5 C 291.0001525878906 165.9873046875 290.0082092285156 176.4676971435547 288.0519104003906 186.6499938964844 C 286.1455078125 196.5724639892578 283.3009948730469 206.3323516845703 279.5973205566406 215.6585388183594 C 275.9612121582031 224.8146209716797 271.4608154296875 233.6455383300781 266.22119140625 241.9058837890625 C 261.0318603515625 250.0868835449219 255.0725250244141 257.7796936035156 248.5086822509766 264.7706298828125 C 241.9458618164062 271.7604370117188 234.7247924804688 278.1061096191406 227.0460205078125 283.63134765625 C 219.2951049804688 289.20849609375 211.0094146728516 293.9985046386719 202.4191436767578 297.8682556152344 C 193.6714477539062 301.8089904785156 184.5173645019531 304.8355102539062 175.2112121582031 306.8637390136719 C 165.6625671386719 308.9447937011719 155.8345184326172 310 146.0000610351562 310 Z"/><path class="c" d="M 146.0000610351562 2 C 136.237060546875 2 126.4806823730469 3.047454833984375 117.0018463134766 5.11334228515625 C 107.7635650634766 7.126739501953125 98.67605590820312 10.13128662109375 89.99168395996094 14.04345703125 C 81.46226501464844 17.88583374023438 73.23493957519531 22.6422119140625 65.53814697265625 28.18038940429688 C 57.91156005859375 33.66802978515625 50.73927307128906 39.97091674804688 44.22047424316406 46.91387939453125 C 37.69960021972656 53.85903930664062 31.779052734375 61.50175476074219 26.62338256835938 69.62974548339844 C 21.4171142578125 77.83749389648438 16.9453125 86.61233520507812 13.33218383789062 95.71054077148438 C 9.651641845703125 104.9785003662109 6.824798583984375 114.6777038574219 4.930267333984375 124.5386657714844 C 2.98583984375 134.6589508056641 1.999969482421875 145.0758819580078 1.999969482421875 155.5 C 1.999969482421875 165.9241180419922 2.98583984375 176.3410491943359 4.930267333984375 186.4613342285156 C 6.824798583984375 196.3222961425781 9.651641845703125 206.0214996337891 13.33218383789062 215.2894592285156 C 16.9453125 224.3876647949219 21.4171142578125 233.1625061035156 26.62338256835938 241.3702392578125 C 31.779052734375 249.4982452392578 37.69960021972656 257.1409606933594 44.22047424316406 264.0861206054688 C 50.73927307128906 271.0290832519531 57.91156005859375 277.3319702148438 65.53814697265625 282.8196411132812 C 73.23493957519531 288.3577880859375 81.46226501464844 293.1141662597656 89.99168395996094 296.95654296875 C 98.67605590820312 300.8687133789062 107.7635650634766 303.8732604980469 117.0018463134766 305.8866577148438 C 126.4806823730469 307.9525451660156 136.237060546875 309 146.0000610351562 309 C 155.7630157470703 309 165.5194396972656 307.9525451660156 174.9982604980469 305.8866577148438 C 184.2365112304688 303.8732604980469 193.3240661621094 300.8687133789062 202.0083923339844 296.95654296875 C 210.5378112792969 293.1141662597656 218.7651824951172 288.3577880859375 226.4619445800781 282.8196411132812 C 234.0885162353516 277.3319702148438 241.2608489990234 271.0290832519531 247.7796478271484 264.0861206054688 C 254.3004760742188 257.1409606933594 260.2210083007812 249.4982452392578 265.3766784667969 241.3702392578125 C 270.5829772949219 233.1625061035156 275.0547790527344 224.3876647949219 278.6679077148438 215.2894592285156 C 282.3484497070312 206.0214996337891 285.1752624511719 196.3222961425781 287.06982421875 186.4613342285156 C 289.0142211914062 176.3410491943359 290.0000915527344 165.9241180419922 290.0000915527344 155.5 C 290.0000915527344 145.0758819580078 289.0142211914062 134.6589508056641 287.06982421875 124.5386657714844 C 285.1752624511719 114.6777038574219 282.3484497070312 104.9785003662109 278.6679077148438 95.71054077148438 C 275.0547790527344 86.61233520507812 270.5829772949219 77.83749389648438 265.3766784667969 69.62974548339844 C 260.2210083007812 61.50175476074219 254.3004760742188 53.85903930664062 247.7796478271484 46.91387939453125 C 241.2608489990234 39.97091674804688 234.0885162353516 33.66802978515625 226.4619445800781 28.18038940429688 C 218.7651824951172 22.6422119140625 210.5378112792969 17.88583374023438 202.0083923339844 14.04345703125 C 193.3240661621094 10.13128662109375 184.2365112304688 7.126739501953125 174.9982604980469 5.11334228515625 C 165.5194396972656 3.047454833984375 155.7630157470703 2 146.0000610351562 2 M 146.0000610351562 0 C 226.6336364746094 0 292.0000915527344 69.61970520019531 292.0000915527344 155.5 C 292.0000915527344 241.3802947998047 226.6336364746094 311 146.0000610351562 311 C 65.36643981933594 311 -3.0517578125e-05 241.3802947998047 -3.0517578125e-05 155.5 C -3.0517578125e-05 69.61970520019531 65.36643981933594 0 146.0000610351562 0 Z"/></g></svg>