<svg xmlns="http://www.w3.org/2000/svg" width="153.638" height="147.884" viewBox="0 0 153.638 147.884"><defs><style>.a{fill:#d1d4d1;}.b{fill:#e6e7e8;}.c{fill:#a5a5a4;}.d{fill:#2c3e50;}.e{fill:#fff;}</style></defs><path class="a" d="M.016,117.29a45.209,45.209,0,0,0,10.734,13.792c12.723,11.219,32.125,16.8,54.281,16.8,24.884,0,46.632-8.617,58.359-21.467a37.8,37.8,0,0,0,6.247-9.127,29.588,29.588,0,0,0,2.957-12.749V54.748C132.594,25.3,109.317.468,79.868.009a52.249,52.249,0,0,0-12.7,1.326A53.553,53.553,0,0,0,25.512,53.55V95.108a28.253,28.253,0,0,1-3.6,14.176C18.551,115.071,11.387,119.915.016,117.29Zm0,0" transform="translate(-0.016 0)"/><path class="b" d="M31.877,143.661C44.6,154.88,64,160.463,86.157,160.463c24.884,0,46.632-8.617,58.359-21.467v-74.6A46.3,46.3,0,0,0,98.624,17.687a44.146,44.146,0,0,0-9.255.968,45.613,45.613,0,0,0-23.2,12.7A47.11,47.11,0,0,0,52.732,64.395V121.48S52.732,137.364,31.877,143.661Zm0,0" transform="translate(-21.143 -12.579)"/><path class="c" d="M20.4,30.9V13.733C20.4,6.148,15.831,0,10.2,0S0,6.148,0,13.733V30.9" transform="translate(153.638 86.79) rotate(93)"/><path class="a" d="M20.4,30.259V15.129C20.4,6.774,15.831,0,10.2,0S0,6.774,0,15.129v15.13c0,2.089,1.142,3.783,2.55,3.783h15.3C19.255,34.042,20.4,32.348,20.4,30.259Zm0,0" transform="translate(152.44 86.555) rotate(93)"/><path class="b" d="M0,25.5H10.2V5.1A5.1,5.1,0,1,0,0,5.1Zm0,0" transform="translate(141.093 91.066) rotate(93)"/><path class="c" d="M229.531,317.824v12.748a10.2,10.2,0,1,0,20.4,0V317.824" transform="translate(-183.638 -226.031)"/><path class="a" d="M229.531,293.89v10.2a10.2,10.2,0,0,0,20.4,0v-10.2a2.55,2.55,0,0,0-2.55-2.55h-15.3A2.55,2.55,0,0,0,229.531,293.89Zm0,0" transform="translate(-183.638 -207.196)"/><path class="b" d="M257.386,282.512h-10.2v20.4a5.1,5.1,0,1,0,10.2,0Zm0,0" transform="translate(-196.196 -200.917)"/><path class="d" d="M52.98,136.365c0-7.04,3.424-12.748,7.648-12.748s7.649,5.708,7.649,12.748-3.424,12.749-7.649,12.749S52.98,143.406,52.98,136.365Zm0,0" transform="translate(49.003 -87.914)"/><path class="e" d="M61.809,146.372c0-2.816,1.142-5.1,2.55-5.1s2.55,2.282,2.55,5.1-1.142,5.1-2.55,5.1S61.809,149.189,61.809,146.372Zm0,0" transform="translate(47.823 -100.471)"/><path class="d" d="M220.7,136.365c0-7.04,3.425-12.748,7.649-12.748S236,129.325,236,136.365s-3.425,12.749-7.649,12.749S220.7,143.406,220.7,136.365Zm0,0" transform="translate(-167.162 -87.914)"/><path class="d" d="M22.947,0a2.55,2.55,0,0,0-2.39,1.657,10.028,10.028,0,0,1-1.894,3.187,8.563,8.563,0,0,1-2.708,2.072,7.394,7.394,0,0,1-6.412,0A8.547,8.547,0,0,1,6.833,4.844,10.072,10.072,0,0,1,4.939,1.66,2.55,2.55,0,0,0,.161,3.444,15.175,15.175,0,0,0,3.014,8.222a13.623,13.623,0,0,0,4.335,3.294,12.529,12.529,0,0,0,10.818,0A13.631,13.631,0,0,0,22.5,8.222a15.175,15.175,0,0,0,2.853-4.778A2.549,2.549,0,0,0,23.86.164,2.575,2.575,0,0,0,22.947,0Zm0,0" transform="matrix(0.998, -0.07, 0.07, 0.998, 70.955, 62.108)"/><path class="e" d="M229.531,146.372c0-2.816,1.142-5.1,2.55-5.1s2.55,2.282,2.55,5.1-1.142,5.1-2.55,5.1S229.531,149.189,229.531,146.372Zm0,0" transform="translate(-168.341 -100.471)"/></svg>