<svg xmlns="http://www.w3.org/2000/svg" width="49.343" height="48.315" viewBox="0 0 49.343 48.315"><defs><style>.a{fill:#3e77bf;}.b{fill:#707070;}.c{fill:#4e4e4e;}.d{fill:#5c5959;}.e{fill:#939393;}.f{fill:#6ca9ea;}</style></defs><path class="a" d="M24.671,5.163a24.784,24.784,0,0,0-7.8,48.272c1.233.228,1.682-.536,1.682-1.194,0-.587-.021-2.145-.033-4.212-6.864,1.5-8.312-3.32-8.312-3.32-1.121-2.862-2.738-3.622-2.738-3.622-2.241-1.538.169-1.508.169-1.508a5.181,5.181,0,0,1,3.778,2.554c2.2,3.785,5.776,2.691,7.182,2.056a5.291,5.291,0,0,1,1.565-3.311c-5.477-.626-11.236-2.75-11.236-12.24a9.6,9.6,0,0,1,2.539-6.649,8.925,8.925,0,0,1,.24-6.553s2.072-.665,6.785,2.539a23.272,23.272,0,0,1,12.355,0c4.708-3.2,6.777-2.539,6.777-2.539a8.921,8.921,0,0,1,.244,6.553,9.583,9.583,0,0,1,2.537,6.649c0,9.514-5.768,11.607-11.264,12.222a5.923,5.923,0,0,1,1.674,4.587c0,3.312-.029,5.982-.029,6.794,0,.664.445,1.435,1.7,1.191A24.786,24.786,0,0,0,24.671,5.163Z" transform="translate(0 -5.163)"/><g transform="translate(0 0)"><path class="b" d="M24.671,5.163a24.784,24.784,0,0,0-7.8,48.272c1.233.228,1.682-.536,1.682-1.194,0-.587-.021-2.145-.033-4.212-6.864,1.5-8.312-3.32-8.312-3.32-1.121-2.862-2.738-3.622-2.738-3.622-2.241-1.538.169-1.508.169-1.508a5.181,5.181,0,0,1,3.778,2.554c2.2,3.785,5.776,2.691,7.182,2.056a5.291,5.291,0,0,1,1.565-3.311c-5.477-.626-11.236-2.75-11.236-12.24a9.6,9.6,0,0,1,2.539-6.649,8.925,8.925,0,0,1,.24-6.553s2.072-.665,6.785,2.539a23.272,23.272,0,0,1,12.355,0c4.708-3.2,6.777-2.539,6.777-2.539a8.921,8.921,0,0,1,.244,6.553,9.583,9.583,0,0,1,2.537,6.649c0,9.514-5.768,11.607-11.264,12.222a5.923,5.923,0,0,1,1.674,4.587c0,3.312-.029,5.982-.029,6.794,0,.664.445,1.435,1.7,1.191A24.786,24.786,0,0,0,24.671,5.163Z" transform="translate(0 -5.163)"/></g><g transform="translate(11.907 10.343)"><path class="c" d="M301.476,109.131a8.9,8.9,0,0,1,.219,6.484,9.584,9.584,0,0,1,2.537,6.649c0,9.514-5.768,11.607-11.264,12.222a5.923,5.923,0,0,1,1.674,4.587c0,3.312-.029,5.982-.029,6.794,0,.664.445,1.435,1.7,1.191a24.831,24.831,0,0,0,15.408-31.875C308.315,111.6,304.529,109.216,301.476,109.131Z" transform="translate(-275.73 -109.131)"/><path class="d" d="M126.979,335.1a4.252,4.252,0,0,1,.971-1.308c-3-.344-6.085-1.145-8.262-3.357C121.362,333.222,124.089,334.49,126.979,335.1Z" transform="translate(-119.688 -308.419)"/></g><path class="e" d="M1.284,31.6A24.647,24.647,0,0,1,44.81,15.636,24.7,24.7,0,1,0,5.845,45.93,24.7,24.7,0,0,1,1.284,31.6Z" transform="translate(0 -5.163)"/><path class="d" d="M295.927,154.736a5.928,5.928,0,0,0-1.674-4.589c5.5-.613,11.265-2.707,11.265-12.221a9.575,9.575,0,0,0-2.539-6.648,8.9,8.9,0,0,0-.244-6.553,2.479,2.479,0,0,0-.786-.049,8.443,8.443,0,0,1-.254,4.931,9.584,9.584,0,0,1,2.537,6.649c0,9.514-5.768,11.607-11.264,12.222a5.923,5.923,0,0,1,1.674,4.587c0,3.312-.029,5.982-.029,6.794a1.173,1.173,0,0,0,1.285,1.234C295.9,159.974,295.927,157.6,295.927,154.736Z" transform="translate(-263.823 -112.781)"/><path class="d" d="M117.464,423.995c.518,1.066,2.259,3.621,6.853,3.083-.006-.562-.011-1.191-.014-1.883C120.759,425.969,118.667,425.057,117.464,423.995Z" transform="translate(-105.779 -382.329)"/><path class="f" d="M118.35,381.892a6.093,6.093,0,0,0-.886-1.049A5.948,5.948,0,0,0,118.35,381.892Z" transform="translate(-105.779 -343.47)"/></svg>