<svg xmlns="http://www.w3.org/2000/svg" xmlns:xlink="http://www.w3.org/1999/xlink" width="49.298" height="48.973" viewBox="0 0 49.298 48.973"><defs><style>.a{fill:url(#a);}.b{fill:url(#b);}.c{fill:url(#c);}.d{fill:url(#d);}.e{fill:url(#e);}.f{fill:url(#f);}.g{fill:url(#g);}.h{fill:url(#h);}.i{fill:#fff;}</style><radialGradient id="a" cx="10.108" cy="42.799" r="54.728" gradientTransform="translate(0.067 0.282) scale(0.993 0.993)" gradientUnits="userSpaceOnUse"><stop offset="0" stop-color="#fae100"/><stop offset="0.054" stop-color="#fadc04"/><stop offset="0.117" stop-color="#fbce0e"/><stop offset="0.183" stop-color="#fcb720"/><stop offset="0.251" stop-color="#fe9838"/><stop offset="0.305" stop-color="#ff7950"/><stop offset="0.492" stop-color="#ff1c74"/><stop offset="1" stop-color="#6c1cd1"/></radialGradient><linearGradient id="b" x1="0.369" y1="0.426" x2="-1.54" y2="-0.648" gradientUnits="objectBoundingBox"><stop offset="0" stop-color="#a1b5d8" stop-opacity="0"/><stop offset="0.309" stop-color="#90a2bd" stop-opacity="0.31"/><stop offset="0.755" stop-color="#7c8b9c" stop-opacity="0.757"/><stop offset="1" stop-color="#748290"/></linearGradient><linearGradient id="c" x1="0.5" y1="0.413" x2="0.5" y2="1.193" gradientUnits="objectBoundingBox"><stop offset="0" stop-color="#fae100" stop-opacity="0"/><stop offset="0.307" stop-color="#fca800" stop-opacity="0.306"/><stop offset="0.627" stop-color="#fe7300" stop-opacity="0.627"/><stop offset="0.868" stop-color="#ff5200" stop-opacity="0.867"/><stop offset="1" stop-color="#ff4500"/></linearGradient><linearGradient id="d" x1="0.316" y1="0.311" x2="0.012" y2="0.005" gradientUnits="objectBoundingBox"><stop offset="0" stop-color="#833ab4" stop-opacity="0"/><stop offset="1" stop-color="#833ab4"/></linearGradient><linearGradient id="e" x1="0.582" y1="0.887" x2="0.418" y2="0.113" xlink:href="#d"/><linearGradient id="f" x1="0.605" y1="0.605" x2="-0.16" y2="-0.16" xlink:href="#d"/><linearGradient id="g" x1="0.376" y1="0.332" x2="-0.072" y2="-0.063" xlink:href="#d"/><linearGradient id="h" x1="0.816" y1="0.182" x2="0.172" y2="0.835" gradientUnits="objectBoundingBox"><stop offset="0" stop-color="#833ab4"/><stop offset="0.092" stop-color="#9c3495"/><stop offset="0.293" stop-color="#dc2546"/><stop offset="0.392" stop-color="#fd1d1d"/><stop offset="0.559" stop-color="#fc6831"/><stop offset="0.689" stop-color="#fc9b40"/><stop offset="0.752" stop-color="#fcaf45"/><stop offset="0.781" stop-color="#fdb750"/><stop offset="0.866" stop-color="#fecb6a"/><stop offset="0.942" stop-color="#ffd87a"/><stop offset="1" stop-color="#ffdc80"/></linearGradient></defs><path class="a" d="M48.454,8.76A8.946,8.946,0,0,0,40.481.838a149.882,149.882,0,0,0-31.663,0A8.947,8.947,0,0,0,.844,8.76a146.946,146.946,0,0,0,0,31.454,8.947,8.947,0,0,0,7.974,7.921,149.885,149.885,0,0,0,31.663,0,8.947,8.947,0,0,0,7.974-7.921A146.946,146.946,0,0,0,48.454,8.76Zm0,0"/><path class="b" d="M71.831,36.607a7.939,7.939,0,0,0-7.076-7.029,133.054,133.054,0,0,0-28.1,0,7.94,7.94,0,0,0-7.076,7.029,130.444,130.444,0,0,0,0,27.911,7.94,7.94,0,0,0,7.076,7.029,133,133,0,0,0,28.1,0,7.939,7.939,0,0,0,7.076-7.029A130.4,130.4,0,0,0,71.831,36.607Zm0,0" transform="translate(-26.058 -26.076)"/><path class="c" d="M7.672,409.8q.051.508.105,1.016a8.947,8.947,0,0,0,7.974,7.921,149.886,149.886,0,0,0,31.663,0,8.947,8.947,0,0,0,7.974-7.921q.055-.508.106-1.016Zm0,0" transform="translate(-6.933 -370.607)"/><path class="d" d="M134.388,128.222a147.077,147.077,0,0,0,.839-16.9l-11.268-11.194a8.093,8.093,0,0,0-5.88-2.679c-4.969-.178-9.954-.169-14.923,0A7.956,7.956,0,0,0,95.4,104.4c-.131.715-.209,1.44-.311,2.16V118.43c.057.385.14.768.166,1.155a8.61,8.61,0,0,0,2.817,6l11.467,11.391a150.011,150.011,0,0,0,16.875-.835A8.947,8.947,0,0,0,134.388,128.222Zm0,0" transform="translate(-85.934 -88.009)"/><path class="e" d="M162.552,154.854a8.947,8.947,0,0,1-7.974,7.921,150.1,150.1,0,0,1-16.874.835l-11.45-11.374a8.058,8.058,0,0,0,5.065,1.932c4.969.185,9.954.18,14.923,0a7.959,7.959,0,0,0,7.886-7.93c.15-4.74.15-9.492,0-14.232a8.231,8.231,0,0,0-2-5.243l11.261,11.187A147.337,147.337,0,0,1,162.552,154.854Zm0,0" transform="translate(-114.097 -114.64)"/><path class="f" d="M187.705,176.533a7.906,7.906,0,0,0-13.713,5.3,7.8,7.8,0,0,0,2.558,5.779l18.269,18.149q1.45-.126,2.9-.279a8.947,8.947,0,0,0,7.974-7.921q.155-1.44.281-2.881Zm0,0" transform="translate(-157.239 -157.35)"/><path class="g" d="M341.36,166.086l-14.7-14.606a1.879,1.879,0,0,0-3.372,1.129,1.857,1.857,0,0,0,.743,1.483l17.07,16.957Q341.271,168.568,341.36,166.086Zm0,0" transform="translate(-292.157 -136.324)"/><path class="h" d="M95.09,106.556c.1-.72.181-1.445.311-2.16a7.955,7.955,0,0,1,7.754-6.948c4.97-.17,9.954-.179,14.923,0a7.959,7.959,0,0,1,7.886,7.929q.224,7.11,0,14.233a7.958,7.958,0,0,1-7.886,7.929c-4.969.178-9.955.183-14.923,0-4.493-.168-7.6-3.48-7.9-7.951-.026-.387-.109-.77-.166-1.155Zm15.5,18.337c2.274,0,4.55.068,6.821-.016,3.561-.131,5.751-2.242,5.834-5.776q.155-6.6,0-13.216c-.083-3.533-2.275-5.693-5.834-5.769q-6.776-.142-13.558,0c-3.532.074-5.729,2.19-5.825,5.685q-.183,6.688,0,13.385c.1,3.494,2.292,5.562,5.825,5.692C106.094,124.96,108.342,124.892,110.587,124.892Zm0,0" transform="translate(-85.934 -88.009)"/><g transform="translate(9.156 9.308)"><path class="i" d="M95.09,106.556c.1-.72.181-1.445.311-2.16a7.955,7.955,0,0,1,7.754-6.948c4.97-.17,9.954-.179,14.923,0a7.959,7.959,0,0,1,7.886,7.929q.224,7.11,0,14.233a7.958,7.958,0,0,1-7.886,7.929c-4.969.178-9.955.183-14.923,0-4.493-.168-7.6-3.48-7.9-7.951-.026-.387-.109-.77-.166-1.155Zm15.5,18.337c2.274,0,4.55.068,6.821-.016,3.561-.131,5.751-2.242,5.834-5.776q.155-6.6,0-13.216c-.083-3.533-2.275-5.693-5.834-5.769q-6.776-.142-13.558,0c-3.532.074-5.729,2.19-5.825,5.685q-.183,6.688,0,13.385c.1,3.494,2.292,5.562,5.825,5.692C106.094,124.96,108.342,124.892,110.587,124.892Zm0,0" transform="translate(-95.09 -97.317)"/><path class="i" d="M181.888,174a7.844,7.844,0,1,0,7.9,7.844A7.87,7.87,0,0,0,181.888,174Zm0,12.987a5.144,5.144,0,1,1,5.178-5.143A5.16,5.16,0,0,1,181.888,186.983Zm0,0" transform="translate(-166.395 -166.662)"/><path class="i" d="M327.042,152.609a1.879,1.879,0,1,1-1.878-1.866A1.872,1.872,0,0,1,327.042,152.609Zm0,0" transform="translate(-301.313 -145.632)"/></g></svg>