<svg xmlns="http://www.w3.org/2000/svg" xmlns:xlink="http://www.w3.org/1999/xlink" width="48.908" height="48.973" viewBox="0 0 48.908 48.973"><defs><style>.a{fill:#6e6b6b;}.b{fill:rgba(92,89,89,0);}.c{fill:url(#a);}.d{fill:rgba(112,112,112,0);}.e{fill:url(#b);}.f{fill:url(#c);}.g{fill:url(#d);}.h{fill:#fff;}</style><linearGradient id="a" x1="0.5" y1="0.413" x2="0.5" y2="1.193" gradientUnits="objectBoundingBox"><stop offset="0" stop-color="#898880" stop-opacity="0"/><stop offset="0.307" stop-color="#707070" stop-opacity="0.306"/><stop offset="0.627" stop-color="#3b3a39" stop-opacity="0.627"/><stop offset="0.868" stop-color="#151514" stop-opacity="0.867"/><stop offset="1"/></linearGradient><linearGradient id="b" x1="0.605" y1="0.605" x2="-0.16" y2="-0.16" gradientUnits="objectBoundingBox"><stop offset="0" stop-color="#121212" stop-opacity="0"/><stop offset="1" stop-color="#2e2e2e"/></linearGradient><linearGradient id="c" x1="0.376" y1="0.332" x2="-0.072" y2="-0.063" gradientUnits="objectBoundingBox"><stop offset="0" stop-color="#707070" stop-opacity="0"/><stop offset="1" stop-color="#1f1e1f"/></linearGradient><linearGradient id="d" x1="0.816" y1="0.182" x2="0.172" y2="0.835" gradientUnits="objectBoundingBox"><stop offset="0" stop-color="#833ab4"/><stop offset="0.092" stop-color="#9c3495"/><stop offset="0.293" stop-color="#dc2546"/><stop offset="0.392" stop-color="#fd1d1d"/><stop offset="0.559" stop-color="#fc6831"/><stop offset="0.689" stop-color="#fc9b40"/><stop offset="0.752" stop-color="#fcaf45"/><stop offset="0.781" stop-color="#fdb750"/><stop offset="0.866" stop-color="#fecb6a"/><stop offset="0.942" stop-color="#ffd87a"/><stop offset="1" stop-color="#ffdc80"/></linearGradient></defs><path class="a" d="M48.07,8.748A8.9,8.9,0,0,0,40.16.837a147.719,147.719,0,0,0-31.412,0A8.9,8.9,0,0,0,.837,8.748a147.719,147.719,0,0,0,0,31.412,8.9,8.9,0,0,0,7.91,7.911,147.722,147.722,0,0,0,31.412,0,8.9,8.9,0,0,0,7.91-7.911A147.718,147.718,0,0,0,48.07,8.748Zm0,0"/><path class="b" d="M71.49,36.6a7.9,7.9,0,0,0-7.019-7.02,131.133,131.133,0,0,0-27.874,0,7.9,7.9,0,0,0-7.02,7.02,131.129,131.129,0,0,0,0,27.874,7.9,7.9,0,0,0,7.02,7.02,131.081,131.081,0,0,0,27.874,0,7.9,7.9,0,0,0,7.02-7.02A131.081,131.081,0,0,0,71.49,36.6Zm0,0" transform="translate(-26.08 -26.08)"/><path class="c" d="M7.672,409.8q.05.507.1,1.014a8.9,8.9,0,0,0,7.911,7.91,147.719,147.719,0,0,0,31.412,0,8.9,8.9,0,0,0,7.91-7.91q.054-.507.1-1.014Zm0,0" transform="translate(-6.939 -370.659)"/><path class="d" d="M134.077,128.181a147.846,147.846,0,0,0,.832-16.879L123.73,100.123a8.007,8.007,0,0,0-5.834-2.676c-4.93-.178-9.875-.169-14.8,0-4.095.141-6.958,2.893-7.693,6.938-.129.714-.207,1.438-.309,2.157V118.4c.056.384.139.767.165,1.153a8.621,8.621,0,0,0,2.794,5.994l11.376,11.376a147.85,147.85,0,0,0,16.741-.834A8.9,8.9,0,0,0,134.077,128.181Zm0,0" transform="translate(-86.007 -88.021)"/><path class="d" d="M162.264,154.817a8.9,8.9,0,0,1-7.91,7.911,147.932,147.932,0,0,1-16.741.834l-2.169-2.169-9.19-9.19a7.965,7.965,0,0,0,5.025,1.929c4.929.185,9.875.18,14.8,0a7.922,7.922,0,0,0,7.824-7.919c.149-4.734.149-9.48,0-14.213a8.252,8.252,0,0,0-1.982-5.236L163.1,137.938A148.117,148.117,0,0,1,162.264,154.817Zm0,0" transform="translate(-114.194 -114.657)"/><path class="e" d="M187.6,176.53A7.833,7.833,0,1,0,176.53,187.6l18.124,18.124q1.439-.125,2.877-.279a8.9,8.9,0,0,0,7.911-7.911q.153-1.438.279-2.877Zm0,0" transform="translate(-157.372 -157.372)"/><path class="f" d="M341.217,166.065,326.63,151.479a1.862,1.862,0,1,0-2.609,2.609l16.934,16.935Q341.129,168.544,341.217,166.065Zm0,0" transform="translate(-292.404 -136.343)"/><path class="g" d="M95.09,106.543c.1-.719.179-1.443.309-2.157.734-4.045,3.6-6.8,7.693-6.938,4.93-.169,9.875-.178,14.8,0a7.922,7.922,0,0,1,7.824,7.919q.222,7.1,0,14.214A7.922,7.922,0,0,1,117.9,127.5c-4.93.178-9.876.182-14.8,0-4.457-.168-7.539-3.475-7.837-7.94-.026-.386-.109-.769-.165-1.153Zm15.375,18.312c2.256,0,4.514.068,6.767-.016,3.532-.131,5.705-2.239,5.788-5.768q.153-6.6,0-13.2c-.082-3.528-2.257-5.686-5.788-5.761q-6.723-.142-13.45,0c-3.5.074-5.683,2.187-5.778,5.677q-.181,6.68,0,13.367c.1,3.489,2.274,5.554,5.779,5.684C106.007,124.923,108.237,124.856,110.465,124.856Zm0,0" transform="translate(-86.007 -88.021)"/><g transform="translate(9.083 9.296)"><path class="h" d="M95.09,106.543c.1-.719.179-1.443.309-2.157.734-4.045,3.6-6.8,7.693-6.938,4.93-.169,9.875-.178,14.8,0a7.922,7.922,0,0,1,7.824,7.919q.222,7.1,0,14.214A7.922,7.922,0,0,1,117.9,127.5c-4.93.178-9.876.182-14.8,0-4.457-.168-7.539-3.475-7.837-7.94-.026-.386-.109-.769-.165-1.153Zm15.375,18.312c2.256,0,4.514.068,6.767-.016,3.532-.131,5.705-2.239,5.788-5.768q.153-6.6,0-13.2c-.082-3.528-2.257-5.686-5.788-5.761q-6.723-.142-13.45,0c-3.5.074-5.683,2.187-5.778,5.677q-.181,6.68,0,13.367c.1,3.489,2.274,5.554,5.779,5.684C106.007,124.923,108.237,124.856,110.465,124.856Zm0,0" transform="translate(-95.09 -97.317)"/><path class="h" d="M181.826,174a7.833,7.833,0,1,0,7.834,7.833A7.834,7.834,0,0,0,181.826,174Zm0,12.97a5.137,5.137,0,1,1,5.137-5.137A5.136,5.136,0,0,1,181.826,186.966Zm0,0" transform="translate(-166.455 -166.672)"/><path class="h" d="M327.012,152.606a1.864,1.864,0,1,1-1.863-1.864A1.864,1.864,0,0,1,327.012,152.606Zm0,0" transform="translate(-301.487 -145.639)"/></g></svg>