<svg xmlns="http://www.w3.org/2000/svg" xmlns:xlink="http://www.w3.org/1999/xlink" width="356.696" height="369.665" viewBox="0 0 356.696 369.665"><defs><style>.a,.b{stroke:#707070;stroke-width:2px;}.a{fill:url(#a);}.b{fill:none;}</style><radialGradient id="a" cx="0.5" cy="0.5" r="2.053" gradientTransform="matrix(0.958, -0.235, 0.232, 0.972, -0.095, 0.132)" gradientUnits="objectBoundingBox"><stop offset="0" stop-color="#212020"/><stop offset="1" stop-color="#3c3b3b"/></radialGradient></defs><g transform="matrix(0.438, 0.899, -0.899, 0.438, 230.951, 1.36)"><path class="a" d="M0,77.76s57-44.532,116.2-63.74S236.793.925,236.793.925s-.859,55.123-23.636,108.166S145.683,213.1,145.683,213.1L0,233.405Z" transform="translate(30.227 11.161)"/><path class="b" d="M0,85.065S68.287,36.35,139.205,15.337,283.673,1.012,283.673,1.012s-1.029,60.3-28.316,118.329-80.832,113.778-80.832,113.778L0,255.334Z" transform="translate(0 0)"/><path class="b" d="M21.617,153.358l23.2-19.035L38.555,57.029l6.259-10.335,8.118,79.772L100.4,84.11V42.849l9.9-10.477V77.234l42.8-40.108,2.558-25.353,8.192-9.229-3.859,29.827L196.109,0h6.542V5.329L153.1,50.146l49.555,3.608L191.2,60.079l-43.6-3.05L119.086,81.364l44.76,8.065L153.1,96.411l-42.8-6.982L64.891,129.452l62.219,4.871-8.024,8.023-63.765-4.308L15.275,174.145,0,176.241Z" transform="translate(40.704 26.727)"/></g></svg>