<svg xmlns="http://www.w3.org/2000/svg" xmlns:xlink="http://www.w3.org/1999/xlink" width="456.063" height="490.571" viewBox="0 0 456.063 490.571"><defs><style>.a,.b{stroke:gray;stroke-width:2px;}.a{fill:url(#a);}.b{fill:none;}</style><radialGradient id="a" cx="0.5" cy="0.5" r="2.436" gradientTransform="matrix(0.702, -0.626, 0.564, 0.78, -0.133, 0.423)" gradientUnits="objectBoundingBox"><stop offset="0" stop-color="#212020"/><stop offset="1" stop-color="#6a6a6a"/></radialGradient></defs><g transform="matrix(0.174, 0.985, -0.985, 0.174, 380.531, 1.172)"><path class="a" d="M0,128.294S102.99,54.822,209.947,23.13s217.884-21.6,217.884-21.6-1.552,90.947-42.705,178.462-121.91,171.6-121.91,171.6L0,385.09Z"/><path class="b" d="M0,117.276S85.97,50.114,175.252,21.144,357.128,1.4,357.128,1.4s-1.3,83.136-35.648,163.135S219.717,321.391,219.717,321.391L0,352.018Z" transform="translate(45.587 16.832)"/><path class="b" d="M32.6,231.291l34.986-28.708L58.148,86.011l9.44-15.587L79.832,190.735l71.591-63.881V64.624l14.928-15.8v67.661L230.9,55.994l3.857-38.238L247.11,3.838l-5.82,44.985L295.768,0h9.867V8.037L230.9,75.63l74.737,5.441-17.271,9.54-65.75-4.6-43.01,36.7,67.506,12.163L230.9,145.406l-64.547-10.53L97.867,195.238l93.838,7.346-12.1,12.1-96.169-6.5-60.4,54.455L0,265.8Z" transform="translate(61.39 40.31)"/></g></svg>