<svg xmlns="http://www.w3.org/2000/svg" width="546.221" height="263.533" viewBox="0 0 546.221 263.533"><defs><style>.a{fill:#40b286;}.b{fill:#114a70;}.c{fill:#fff;}.d{fill:none;stroke:#114a70;stroke-width:4px;}.e{fill:#42b78a;}</style></defs><g transform="translate(1086.087 -1810.371)"><path class="a" d="M0,0H546.221V263.533H0Z" transform="translate(-1086.087 1810.371)"/><path class="b" d="M0,0H546.221V15.607H0Z" transform="translate(-1086.087 1810.371)"/><rect class="c" width="115.89" height="8.348" rx="4.174" transform="translate(-1002.243 1920.835)"/><rect class="c" width="139.214" height="8.348" rx="4.174" transform="translate(-1002.243 1939.104)"/><rect class="c" width="157.949" height="8.348" rx="4.174" transform="translate(-1002.243 1901.49)"/><rect class="c" width="33.271" height="4.839" rx="2.419" transform="translate(-661.566 1816.299)"/><rect class="a" width="33.271" height="4.839" rx="2.419" transform="translate(-603.129 1816.299)"/><rect class="b" width="53.336" height="12.363" rx="6.181" transform="translate(-1003.412 1978.318)"/><rect class="c" width="33.271" height="4.839" rx="2.419" transform="translate(-720.003 1816.299)"/><g transform="translate(-779.893 1869.171)"><path class="b" d="M76.97,0H15.395A15.4,15.4,0,0,0,0,15.395V76.97A15.4,15.4,0,0,0,15.395,92.364H76.97A15.4,15.4,0,0,0,92.364,76.97V15.395A15.4,15.4,0,0,0,76.97,0Z" transform="translate(36.34 21.483) rotate(7)"/><path class="d" d="M102.9,0H20.581A20.582,20.582,0,0,0,0,20.581V102.9a20.582,20.582,0,0,0,20.581,20.581H102.9A20.582,20.582,0,0,0,123.479,102.9V20.581A20.581,20.581,0,0,0,102.9,0Z" transform="translate(15.048 8.145) rotate(7)"/><path class="d" d="M102.9,0H20.581A20.582,20.582,0,0,0,0,20.581V102.9a20.582,20.582,0,0,0,20.581,20.581H102.9A20.582,20.582,0,0,0,123.479,102.9V20.581A20.581,20.581,0,0,0,102.9,0Z" transform="translate(30.502 0) rotate(7)"/><path class="e" d="M48.024,55.18c-10.348,0-20.7-4.6-26.215-13.488a24.038,24.038,0,0,1,.69-26.977L12.84,0C-.958,13.182-4.407,33.415,6.286,49.662,16.979,66.216,38.021,73.88,57.682,70.2Z" transform="translate(53.817 32.773) rotate(7)"/></g></g></svg>