<svg xmlns="http://www.w3.org/2000/svg" xmlns:xlink="http://www.w3.org/1999/xlink" width="114.223" height="114.391" viewBox="0 0 114.223 114.391"><defs><style>.a{fill:url(#a);}</style><linearGradient id="a" x1="0.5" x2="0.5" y2="1" gradientUnits="objectBoundingBox"><stop offset="0" stop-color="#2af598"/><stop offset="1" stop-color="#009efd"/></linearGradient></defs><path class="a" d="M107.006,16.733A16.757,16.757,0,0,0,78.39,4.91L10.935,72.636a20.075,20.075,0,0,0-4.844,7.85l-.063.191L0,107.187l26.584-5.952.2-.065a20.108,20.108,0,0,0,7.86-4.847l67.463-67.734A16.647,16.647,0,0,0,107.006,16.733ZM14.742,95.312l-2.819-2.821,2.035-8.953L23.717,93.3ZM96.181,22.68l-65.5,65.758L18.825,76.571,63.689,31.527l6.832,6.832,5.917-5.917L69.594,25.6l6.365-6.389,6.856,6.856,5.917-5.917-6.869-6.869,2.451-2.461A8.389,8.389,0,1,1,96.181,22.68Z" transform="translate(7.477 0.001) rotate(4)"/></svg>