<svg xmlns="http://www.w3.org/2000/svg" width="134.057" height="134.223" viewBox="0 0 134.057 134.223"><defs><style>.a{fill:#dedddd;}</style></defs><path class="a" d="M117.143,99.023a18.344,18.344,0,0,1-31.327,12.943L11.971,37.825a21.977,21.977,0,0,1-5.3-8.593L6.6,29.022,0,0,29.1,6.516l.217.072a22.013,22.013,0,0,1,8.6,5.306l73.854,74.151A18.224,18.224,0,0,1,117.143,99.023ZM16.139,13l-3.086,3.088,2.228,9.8L25.964,15.2Zm89.153,79.512-71.7-71.988L20.609,33.517,69.723,82.828,77.2,75.349l6.477,6.477-7.492,7.492,6.968,6.995,7.506-7.506,6.477,6.477L89.618,102.8,92.3,105.5a9.184,9.184,0,1,0,12.991-12.985Z" transform="translate(134.057 115.897) rotate(171)"/></svg>