<svg xmlns="http://www.w3.org/2000/svg" width="203.648" height="203.899" viewBox="0 0 203.648 203.899"><defs><style>.a{fill:#707070;}</style></defs><path class="a" d="M177.954,150.427a27.867,27.867,0,0,1-47.59,19.663L18.186,57.461A33.385,33.385,0,0,1,10.13,44.406l-.1-.318L0,0,44.21,9.9l.329.109A33.44,33.44,0,0,1,57.61,18.067L169.8,130.71A27.685,27.685,0,0,1,177.954,150.427ZM24.516,19.75,19.829,24.44l3.385,14.889L39.442,23.091ZM159.95,140.538,51.031,31.18,31.307,50.916l74.61,74.909,11.361-11.361,9.839,9.839-11.382,11.382,10.585,10.626,11.4-11.4,9.839,9.839L136.14,156.171l4.076,4.092a13.951,13.951,0,1,0,19.735-19.725Z" transform="translate(203.648 176.061) rotate(171)"/></svg>