<svg xmlns="http://www.w3.org/2000/svg" width="441.46" height="733.559" viewBox="0 0 441.46 733.559"><defs><style>.a{fill:#114a70;}.b{fill:#00233f;}.c{fill:#42b78a;}.d{fill:#0dd396;}.e{fill:#464655;}.f{fill:#707384;}</style></defs><g transform="translate(-5276.944 697.035)"><g transform="translate(5371.688 -582.614) rotate(7)"><rect class="a" width="313.848" height="488.914" transform="translate(0 0.007)"/><path class="b" d="M0,0H313.526V488.708" transform="translate(0.045 0)"/><path class="c" d="M145.5,188.115c-31.353,0-62.705-15.676-79.427-45.984-16.721-29.262-14.631-64.8,2.09-91.968L38.9,0C-2.9,44.939-13.352,113.914,19.046,169.3a145.078,145.078,0,0,0,155.718,70.021Z" transform="translate(65.652 91.051)"/><path class="d" d="M99.155,145.267c-13.586-7.316-25.082-18.812-33.443-33.443s-11.5-30.307-11.5-45.984L16.593,0a145.877,145.877,0,0,0,2.09,139C43.765,182.89,88.7,209.017,136.778,212.152Z" transform="translate(66.014 122.224)"/></g><g transform="translate(689 4)"><g transform="translate(3333 -917)"><g transform="translate(1418.5 261.862) rotate(7)"><path class="e" d="M11.982,23.964h71.89A11.983,11.983,0,0,0,95.855,11.982h0A11.983,11.983,0,0,0,83.872,0H11.982A11.983,11.983,0,0,0,0,11.982H0A11.984,11.984,0,0,0,11.982,23.964Z" transform="translate(47.926 0)"/><ellipse class="e" cx="11.982" cy="11.982" rx="11.982" ry="11.982"/><ellipse class="e" cx="23.963" cy="23.963" rx="23.963" ry="23.963" transform="translate(71.89 587.1)"/><path class="f" d="M323.5,0H35.945A35.945,35.945,0,0,0,0,35.945V658.988a35.945,35.945,0,0,0,35.945,35.945H323.5a35.945,35.945,0,0,0,35.945-35.945V35.945A35.945,35.945,0,0,0,323.5,0ZM131.8,47.926a11.983,11.983,0,0,1,11.982-11.982h71.89a11.983,11.983,0,0,1,11.982,11.982h0a11.983,11.983,0,0,1-11.982,11.982h-71.89A11.982,11.982,0,0,1,131.8,47.926ZM95.853,35.945A11.982,11.982,0,1,1,83.871,47.927,11.983,11.983,0,0,1,95.853,35.945ZM179.724,670.97a23.963,23.963,0,1,1,23.963-23.963A23.963,23.963,0,0,1,179.724,670.97ZM335.486,455.3V599.08H23.963V455.3l1.025-342.875H334.562l.922,342.875Z" transform="translate(-83.871 -35.944)"/></g></g></g></g></svg>