<svg xmlns="http://www.w3.org/2000/svg" xmlns:xlink="http://www.w3.org/1999/xlink" width="80" height="80" viewBox="0 0 80 80"><defs><style>.a{fill:url(#a);}</style><linearGradient id="a" x1="-0.678" y1="0.329" x2="0.5" y2="1" gradientUnits="objectBoundingBox"><stop offset="0" stop-color="#b2afaf" stop-opacity="0.941"/><stop offset="1" stop-color="#35609a"/></linearGradient></defs><path class="a" d="M392.289,72.18a8,8,0,0,0,16,0,24,24,0,0,1,24-24,8,8,0,0,0,0-16,24,24,0,0,1-24-24,8,8,0,0,0-16,0,24,24,0,0,1-24,24,8,8,0,0,0,0,16A24,24,0,0,1,392.289,72.18Zm8-40.246a39.876,39.876,0,0,0,8.25,8.246,39.894,39.894,0,0,0-8.25,8.25,39.876,39.876,0,0,0-8.246-8.25A39.857,39.857,0,0,0,400.289,31.934Zm0,0" transform="translate(-360.289 -0.18)"/></svg>