<svg xmlns="http://www.w3.org/2000/svg" width="55.725" height="55.725" viewBox="0 0 55.725 55.725"><defs><style>.a{fill:#dedddd;}</style></defs><path class="a" d="M380.864,46.474a5.144,5.144,0,0,0,10.288,0,15.432,15.432,0,0,1,15.431-15.431,5.144,5.144,0,0,0,0-10.288A15.43,15.43,0,0,1,391.152,5.323a5.144,5.144,0,0,0-10.288,0,15.43,15.43,0,0,1-15.431,15.431,5.144,5.144,0,0,0,0,10.288A15.432,15.432,0,0,1,380.864,46.474ZM386.008,9.23c1.5,2.017,13.132,17.77,20.209,16.668-2.019,1.5-23.872,11.949-20.209,20.575,5.333-5.232-17.938-19.518-19.955-21.017C376.017,23.97,384.511,11.247,386.008,9.23Z" transform="translate(-358.934 35.705) rotate(-5)"/></svg>