<svg xmlns="http://www.w3.org/2000/svg" xmlns:xlink="http://www.w3.org/1999/xlink" width="468.823" height="500.077" viewBox="0 0 468.823 500.077"><defs><style>.a{fill:url(#a);}.b,.c,.d{stroke:gray;stroke-width:2px;}.b{fill:url(#b);}.c{fill:url(#c);}.d,.g{fill:none;}.e,.f{stroke:none;}.f{fill:gray;}</style><radialGradient id="a" cx="0.5" cy="0.5" r="0.429" gradientTransform="matrix(0.284, 0.964, 1.028, -0.267, -0.156, 0.151)" gradientUnits="objectBoundingBox"><stop offset="0" stop-color="#6a6a6a"/><stop offset="1" stop-color="#242323"/></radialGradient><radialGradient id="b" cx="0.5" cy="0.5" r="1.424" gradientTransform="matrix(-0.917, 0.509, 0.543, 0.861, 0.687, -0.185)" gradientUnits="objectBoundingBox"><stop offset="0" stop-color="#212020"/><stop offset="1" stop-color="#212020"/></radialGradient><radialGradient id="c" cx="0.5" cy="0.5" r="1.743" gradientTransform="matrix(-1.058, 0, 0, 1, 1.029, 0)" gradientUnits="objectBoundingBox"><stop offset="0" stop-color="#212020"/><stop offset="1" stop-color="#6a6a6a"/></radialGradient></defs><g transform="translate(-1513 -694.923)"><g class="a" transform="translate(1513 694.923)"><path class="e" d="M 234.411376953125 499.077392578125 C 218.5784454345703 499.077392578125 202.7556304931641 497.3760070800781 187.382568359375 494.0205078125 C 172.3999328613281 490.7501831054688 157.6623840332031 485.8703918457031 143.5791320800781 479.5165710449219 C 129.7501220703125 473.2774963378906 116.411750793457 465.554931640625 103.9343795776367 456.5633850097656 C 91.57406616210938 447.65625 79.95063018798828 437.4266357421875 69.38700103759766 426.1588134765625 C 58.82231521606445 414.8898315429688 49.23069000244141 402.4896240234375 40.87856292724609 389.3026428222656 C 32.44575119018555 375.9882507324219 25.20275115966797 361.75439453125 19.35081481933594 346.9964599609375 C 13.39031410217285 331.9648132324219 8.812501907348633 316.2343139648438 5.744502067565918 300.2418212890625 C 2.596251964569092 283.8312072753906 1.000001907348633 266.9404602050781 1.000001907348633 250.0386962890625 C 1.000001907348633 233.1369476318359 2.596251964569092 216.2462005615234 5.744502067565918 199.8355712890625 C 8.812501907348633 183.8430786132812 13.39031410217285 168.1125640869141 19.35081481933594 153.0809478759766 C 25.20275115966797 138.3230133056641 32.44575119018555 124.0891342163086 40.87856292724609 110.7747573852539 C 49.23069000244141 97.58776092529297 58.82231521606445 85.18756866455078 69.38700103759766 73.91857147216797 C 79.95063018798828 62.65076065063477 91.57406616210938 52.42113494873047 103.9343795776367 43.51400756835938 C 116.411750793457 34.52244567871094 129.7501220703125 26.79988288879395 143.5791320800781 20.56082153320312 C 157.6623840332031 14.20700836181641 172.3999328613281 9.32719612121582 187.382568359375 6.056883811950684 C 202.7556304931641 2.701383829116821 218.5784454345703 1.000008821487427 234.411376953125 1.000008821487427 C 250.2443084716797 1.000008821487427 266.0670776367188 2.701383829116821 281.440185546875 6.056883811950684 C 296.4227600097656 9.32719612121582 311.1603698730469 14.20700836181641 325.2436218261719 20.56082153320312 C 339.0725708007812 26.79988288879395 352.4110107421875 34.52244567871094 364.8883666992188 43.51400756835938 C 377.2486877441406 52.42113494873047 388.8720703125 62.65076065063477 399.4356994628906 73.91857147216797 C 410.0003662109375 85.18756866455078 419.5920104980469 97.58776092529297 427.9441833496094 110.7747573852539 C 436.3770141601562 124.0891342163086 443.6199951171875 138.3230133056641 449.4719543457031 153.0809478759766 C 455.4324340820312 168.1125640869141 460.01025390625 183.8430786132812 463.0782470703125 199.8355712890625 C 466.2265014648438 216.2462005615234 467.82275390625 233.1369476318359 467.82275390625 250.0386962890625 C 467.82275390625 266.9404602050781 466.2265014648438 283.8312072753906 463.0782470703125 300.2418212890625 C 460.01025390625 316.2343139648438 455.4324340820312 331.9648132324219 449.4719543457031 346.9964599609375 C 443.6199951171875 361.75439453125 436.3770141601562 375.9882507324219 427.9441833496094 389.3026428222656 C 419.5920104980469 402.4896240234375 410.0003662109375 414.8898315429688 399.4356994628906 426.1588134765625 C 388.8720703125 437.4266357421875 377.2486877441406 447.65625 364.8883666992188 456.5633850097656 C 352.4110107421875 465.554931640625 339.0725708007812 473.2774963378906 325.2436218261719 479.5165710449219 C 311.1603698730469 485.8703918457031 296.4227600097656 490.7501831054688 281.440185546875 494.0205078125 C 266.0670776367188 497.3760070800781 250.2443084716797 499.077392578125 234.411376953125 499.077392578125 Z"/><path class="f" d="M 234.411376953125 2 C 218.6500091552734 2 202.8989868164062 3.693634033203125 187.5958251953125 7.03387451171875 C 172.6811828613281 10.289306640625 158.0101928710938 15.14712524414062 143.9903869628906 21.47232055664062 C 130.2222595214844 27.6839599609375 116.9421997070312 35.37283325195312 104.5190124511719 44.32525634765625 C 92.21087646484375 53.19482421875 80.63619995117188 63.38156127929688 70.1165771484375 74.60250854492188 C 59.59481811523438 85.82574462890625 50.04193115234375 98.17587280273438 41.723388671875 111.309814453125 C 33.32388305664062 124.5716247558594 26.109375 138.74951171875 20.28036499023438 153.4495849609375 C 14.34292602539062 168.4230041503906 9.782806396484375 184.0929565429688 6.7265625 200.0240173339844 C 3.590240478515625 216.3726196289062 2 233.2000122070312 2 250.0386962890625 C 2 266.8773193359375 3.590240478515625 283.7047119140625 6.7265625 300.0534057617188 C 9.782806396484375 315.9844360351562 14.34292602539062 331.6543273925781 20.28036499023438 346.6278076171875 C 26.109375 361.327880859375 33.32388305664062 375.5057678222656 41.723388671875 388.767578125 C 50.04193115234375 401.9015197753906 59.59481811523438 414.2516479492188 70.1165771484375 425.4748229980469 C 80.63619995117188 436.6957702636719 92.21087646484375 446.8825073242188 104.5190124511719 455.7520751953125 C 116.9421997070312 464.7045593261719 130.2222595214844 472.3933715820312 143.9903869628906 478.6050720214844 C 158.0101928710938 484.9302673339844 172.6811828613281 489.7880859375 187.5958251953125 493.0435180664062 C 202.8989868164062 496.3837585449219 218.6500091552734 498.077392578125 234.411376953125 498.077392578125 C 250.1727447509766 498.077392578125 265.9237670898438 496.3837585449219 281.2269287109375 493.0435180664062 C 296.1415710449219 489.7880859375 310.8125610351562 484.9302673339844 324.8323974609375 478.6050720214844 C 338.6004333496094 472.3933715820312 351.8804931640625 464.7045593261719 364.3037414550781 455.7520751953125 C 376.6118774414062 446.8825073242188 388.1864929199219 436.6957702636719 398.7061767578125 425.4748229980469 C 409.2279357910156 414.2516479492188 418.78076171875 401.9015197753906 427.099365234375 388.767578125 C 435.4988708496094 375.5057678222656 442.71337890625 361.327880859375 448.5423889160156 346.6278076171875 C 454.4798278808594 331.6543273925781 459.0399475097656 315.9844360351562 462.09619140625 300.0534057617188 C 465.2325134277344 283.7047119140625 466.82275390625 266.8773193359375 466.82275390625 250.0386962890625 C 466.82275390625 233.2000122070312 465.2325134277344 216.3726196289062 462.09619140625 200.0240173339844 C 459.0399475097656 184.0929565429688 454.4798278808594 168.4230041503906 448.5423889160156 153.4495849609375 C 442.71337890625 138.74951171875 435.4988708496094 124.5716247558594 427.099365234375 111.309814453125 C 418.7808227539062 98.17587280273438 409.2279357910156 85.82574462890625 398.7061767578125 74.60250854492188 C 388.1864929199219 63.38156127929688 376.6118774414062 53.19482421875 364.3037414550781 44.32525634765625 C 351.8804931640625 35.37283325195312 338.6004333496094 27.6839599609375 324.8323974609375 21.47232055664062 C 310.8125610351562 15.14712524414062 296.1415710449219 10.289306640625 281.2269287109375 7.03387451171875 C 265.9237670898438 3.693634033203125 250.1727447509766 2 234.411376953125 2 M 234.411376953125 0 C 363.8731994628906 0 468.82275390625 111.9461364746094 468.82275390625 250.0386962890625 C 468.82275390625 388.1311950683594 363.8731994628906 500.077392578125 234.411376953125 500.077392578125 C 104.9494934082031 500.077392578125 0 388.1311950683594 0 250.0386962890625 C 0 111.9461364746094 104.9494934082031 0 234.411376953125 0 Z"/></g><g class="b" transform="translate(1545.823 741)"><ellipse class="e" cx="205" cy="218.5" rx="205" ry="218.5"/><ellipse class="g" cx="205" cy="218.5" rx="204" ry="217.5"/></g><g class="c" transform="translate(1734.823 857)"><ellipse class="e" cx="69.5" cy="73.5" rx="69.5" ry="73.5"/><ellipse class="g" cx="69.5" cy="73.5" rx="68.5" ry="72.5"/></g><g class="d" transform="translate(1632.823 804)"><ellipse class="e" cx="146" cy="155.5" rx="146" ry="155.5"/><ellipse class="g" cx="146" cy="155.5" rx="145" ry="154.5"/></g></g></svg>