<svg xmlns="http://www.w3.org/2000/svg" xmlns:xlink="http://www.w3.org/1999/xlink" width="217.246" height="217.686" viewBox="0 0 217.246 217.686"><defs><style>.a{fill:url(#a);}.b{fill:#3b3b3b;}.c{fill:#4d4d4d;}.d{fill:#d8d8d8;}.e{fill:#e7e7e7;}.f{fill:#707070;}</style><radialGradient id="a" cx="0.5" cy="0.5" r="0.634" gradientTransform="matrix(0.878, 0.479, -0.368, 0.674, 0.245, -0.077)" gradientUnits="objectBoundingBox"><stop offset="0" stop-color="#2af598"/><stop offset="1" stop-color="#04abcb"/></radialGradient></defs><g transform="translate(-1464.468 -2485.754)"><path class="a" d="M-1649.377,493.247a109.432,109.432,0,0,1-21.892-2.207,108.075,108.075,0,0,1-20.39-6.329A108.622,108.622,0,0,1-1710.11,474.7a109.4,109.4,0,0,1-16.076-13.264,109.4,109.4,0,0,1-13.263-16.076,108.634,108.634,0,0,1-10.014-18.451,108.082,108.082,0,0,1-6.329-20.39A109.434,109.434,0,0,1-1758,384.623a109.43,109.43,0,0,1,2.207-21.891,108.088,108.088,0,0,1,6.329-20.39,108.631,108.631,0,0,1,10.015-18.451,109.409,109.409,0,0,1,13.264-16.076,109.408,109.408,0,0,1,16.076-13.264,108.64,108.64,0,0,1,18.451-10.015,108.074,108.074,0,0,1,20.39-6.329A109.422,109.422,0,0,1-1649.377,276a109.421,109.421,0,0,1,21.891,2.207,108.072,108.072,0,0,1,20.39,6.329,108.641,108.641,0,0,1,18.451,10.015,109.41,109.41,0,0,1,16.076,13.264,109.406,109.406,0,0,1,13.264,16.076,108.644,108.644,0,0,1,10.015,18.451,108.074,108.074,0,0,1,6.329,20.39,109.427,109.427,0,0,1,2.207,21.891,109.427,109.427,0,0,1-2.207,21.891,108.078,108.078,0,0,1-6.329,20.39,108.646,108.646,0,0,1-10.015,18.451,109.406,109.406,0,0,1-13.264,16.076,109.407,109.407,0,0,1-16.076,13.264,108.637,108.637,0,0,1-18.451,10.015,108.078,108.078,0,0,1-20.39,6.329A109.423,109.423,0,0,1-1649.377,493.247Zm.41-190.5A89.178,89.178,0,0,0-1666.1,304.4a87.256,87.256,0,0,0-15.956,4.749,86.211,86.211,0,0,0-14.438,7.514,84.948,84.948,0,0,0-12.58,9.952,82.947,82.947,0,0,0-10.379,12.062,80.511,80.511,0,0,0-7.837,13.844,78.656,78.656,0,0,0-4.953,15.3,78.847,78.847,0,0,0-1.727,16.425,78.844,78.844,0,0,0,1.727,16.425,78.659,78.659,0,0,0,4.953,15.3,80.509,80.509,0,0,0,7.837,13.844,82.951,82.951,0,0,0,10.379,12.062,84.941,84.941,0,0,0,12.58,9.952,86.22,86.22,0,0,0,14.438,7.514,87.253,87.253,0,0,0,15.956,4.749,89.178,89.178,0,0,0,17.131,1.656,89.179,89.179,0,0,0,17.13-1.656,87.25,87.25,0,0,0,15.955-4.749,86.223,86.223,0,0,0,14.438-7.514,84.95,84.95,0,0,0,12.58-9.952,82.933,82.933,0,0,0,10.379-12.062,80.52,80.52,0,0,0,7.837-13.844,78.67,78.67,0,0,0,4.953-15.3,78.837,78.837,0,0,0,1.727-16.425,78.84,78.84,0,0,0-1.727-16.425,78.672,78.672,0,0,0-4.953-15.3,80.522,80.522,0,0,0-7.837-13.844,82.936,82.936,0,0,0-10.379-12.062,84.951,84.951,0,0,0-12.58-9.952,86.226,86.226,0,0,0-14.438-7.514,87.251,87.251,0,0,0-15.955-4.749A89.179,89.179,0,0,0-1648.967,302.747Zm-.41,136.188a53.975,53.975,0,0,1-21.141-4.268,54.321,54.321,0,0,1-9.226-5.007,54.7,54.7,0,0,1-8.038-6.632,54.692,54.692,0,0,1-6.632-8.038,54.3,54.3,0,0,1-5.007-9.226,53.975,53.975,0,0,1-4.268-21.141,53.974,53.974,0,0,1,4.268-21.141,54.3,54.3,0,0,1,5.007-9.226,54.694,54.694,0,0,1,6.632-8.038,54.7,54.7,0,0,1,8.038-6.632,54.321,54.321,0,0,1,9.226-5.007,53.976,53.976,0,0,1,21.141-4.268,53.976,53.976,0,0,1,21.141,4.268,54.316,54.316,0,0,1,9.226,5.007,54.7,54.7,0,0,1,8.038,6.632,54.7,54.7,0,0,1,6.632,8.038,54.309,54.309,0,0,1,5.007,9.226,53.974,53.974,0,0,1,4.268,21.141,53.974,53.974,0,0,1-4.268,21.141,54.308,54.308,0,0,1-5.007,9.226,54.7,54.7,0,0,1-6.632,8.038,54.7,54.7,0,0,1-8.038,6.632,54.309,54.309,0,0,1-9.226,5.007A53.976,53.976,0,0,1-1649.377,438.935Z" transform="translate(3222.468 2209.753)"/><g transform="translate(1464.753 2491.47)"><path class="b" d="M353.37,76.551,322.869,95.8l-8.437-8.437-26.89,20.681L245,156.794l13.34,13.34,38.694-38.694A43.844,43.844,0,0,0,353.37,76.551Z" transform="translate(-144.786 -45.044)"/><path class="c" d="M286.923,35.66l19.248-30.5a43.832,43.832,0,0,0-54.878,56.323l-38.7,38.7,13.34,13.34L295.36,44.1Z" transform="translate(-125.715 -1.776)"/><path class="b" d="M75.042,354.879l19.252-30.5-8.437-8.437,20.681-26.89,48.747-42.539,13.34,13.34-38.694,38.694a43.844,43.844,0,0,1-54.889,56.334Z" transform="translate(-44.777 -145.053)"/><path class="c" d="M34.151,288.431,3.653,307.68A43.832,43.832,0,0,1,59.976,252.8l38.7-38.7,13.34,13.34L42.588,296.869Z" transform="translate(-1.509 -125.981)"/><path class="d" d="M93.708,40.18l3.5-10.495L45.257,0,32.61,12.647,69.222,55.468l93.187,86.978,16.783-16.783Z" transform="translate(-19.809)"/><path class="e" d="M1.881,43.376,31.567,95.325l10.494-3.5,85.484,85.484,16.783-16.783-129.8-129.8Z" transform="translate(-1.728 -18.082)"/><path class="f" d="M279.091,209,259.2,228.89l33.064,45.481,51.562,39.145,19.887-19.887Z" transform="translate(-153.142 -122.982)"/><path class="c" d="M0,0H28.125V119.679H0Z" transform="translate(86.151 125.798) rotate(-45)"/></g></g></svg>