<svg xmlns="http://www.w3.org/2000/svg" width="589.562" height="362" viewBox="0 0 589.562 362"><defs><style>.a,.b{fill:#fff;}.a,.d{stroke:#707070;}.a,.d,.e{stroke-width:3px;}.c,.d{fill:#707070;}.e{fill:#2c2828;stroke:#2c2828;}.f{fill:#1f1c1c;}.g{stroke:none;}.h{fill:none;}</style></defs><g class="a" transform="translate(11)"><rect class="g" width="552" height="304" rx="8"/><rect class="h" x="1.5" y="1.5" width="549" height="301" rx="6.5"/></g><g class="a" transform="translate(11)"><rect class="g" width="552" height="304" rx="8"/><rect class="h" x="1.5" y="1.5" width="549" height="301" rx="6.5"/></g><g class="a" transform="translate(11)"><rect class="g" width="552" height="304" rx="8"/><rect class="h" x="1.5" y="1.5" width="549" height="301" rx="6.5"/></g><path class="b" d="M580.765,301.584H8.417A5.924,5.924,0,0,1,2.5,295.667V8.417A5.924,5.924,0,0,1,8.417,2.5H580.765a5.924,5.924,0,0,1,5.917,5.917v287.25A5.924,5.924,0,0,1,580.765,301.584Z" transform="translate(0.19 0.19)"/><path class="c" d="M8.607,5.379A3.231,3.231,0,0,0,5.379,8.607v287.25a3.231,3.231,0,0,0,3.228,3.228H580.955a3.231,3.231,0,0,0,3.228-3.228V8.607a3.231,3.231,0,0,0-3.228-3.228H8.607M8.607,0H580.955a8.607,8.607,0,0,1,8.607,8.607v287.25a8.607,8.607,0,0,1-8.607,8.607H8.607A8.607,8.607,0,0,1,0,295.857V8.607A8.607,8.607,0,0,1,8.607,0Z"/><g class="d" transform="translate(216 304)"><rect class="g" width="141" height="46"/><rect class="h" x="1.5" y="1.5" width="138" height="43"/></g><g class="d" transform="translate(216 304)"><rect class="g" width="141" height="46"/><rect class="h" x="1.5" y="1.5" width="138" height="43"/></g><g class="d" transform="translate(216 304)"><rect class="g" width="141" height="46"/><rect class="h" x="1.5" y="1.5" width="138" height="43"/></g><g class="d" transform="translate(216 304)"><rect class="g" width="141" height="46"/><rect class="h" x="1.5" y="1.5" width="138" height="43"/></g><g class="d" transform="translate(216 304)"><rect class="g" width="141" height="46"/><rect class="h" x="1.5" y="1.5" width="138" height="43"/></g><g class="d" transform="translate(216 304)"><rect class="g" width="141" height="46"/><rect class="h" x="1.5" y="1.5" width="138" height="43"/></g><g class="e" transform="translate(216 304)"><rect class="g" width="141" height="46"/><rect class="h" x="1.5" y="1.5" width="138" height="43"/></g><g class="d" transform="translate(166 350)"><rect class="g" width="241" height="12"/><rect class="h" x="1.5" y="1.5" width="238" height="9"/></g><path class="f" d="M0,1045Z" transform="translate(344.303 -760.982)"/></svg>