<svg xmlns="http://www.w3.org/2000/svg" width="52.223" height="52" viewBox="0 0 52.223 52"><defs><style>.a{fill:#707070;}.b{fill:#525151;}.c{fill:#fff;}.d{fill:#d1d1d1;}</style></defs><g transform="translate(0.408)"><circle class="a" cx="26" cy="26" r="26" transform="translate(-0.408)"/><path class="b" d="M139.249,139.326c-2.7,2.345-5.39,4.4-7.586,7.272-5.4,6.515-12,15.758-20.989,14.38l16.052,16.031a25.909,25.909,0,0,0,24.561-25.643Z" transform="translate(-99.473 -125.225)"/><path class="c" d="M138.654,136.984a11.725,11.725,0,0,1-2.045.69,6.374,6.374,0,0,0,1.683-2.68.334.334,0,0,0-.489-.389,11.8,11.8,0,0,1-3.127,1.292.79.79,0,0,1-.2.024.829.829,0,0,1-.548-.209,6.394,6.394,0,0,0-4.231-1.6,6.834,6.834,0,0,0-2.026.313,6.2,6.2,0,0,0-4.175,4.464,6.822,6.822,0,0,0-.151,2.354.229.229,0,0,1-.058.179.238.238,0,0,1-.177.08h-.023a16.767,16.767,0,0,1-11.524-6.157.334.334,0,0,0-.548.043,6.4,6.4,0,0,0,1.041,7.773,5.733,5.733,0,0,1-1.459-.565.335.335,0,0,0-.5.289,6.4,6.4,0,0,0,3.735,5.9H113.7a5.726,5.726,0,0,1-1.077-.1.335.335,0,0,0-.381.43,6.408,6.408,0,0,0,5.062,4.359,11.8,11.8,0,0,1-6.609,2.007h-.739a.489.489,0,0,0-.479.369.506.506,0,0,0,.242.56,17.55,17.55,0,0,0,8.819,2.378,17.786,17.786,0,0,0,7.536-1.6,16.642,16.642,0,0,0,5.514-4.132,18.113,18.113,0,0,0,3.377-5.655,17.865,17.865,0,0,0,1.148-6.189v-.1a1.089,1.089,0,0,1,.407-.847,12.642,12.642,0,0,0,2.543-2.79.334.334,0,0,0-.413-.491Z" transform="translate(-98.387 -120.541)"/><path class="d" d="M269.841,136.984a11.731,11.731,0,0,1-2.045.69,6.375,6.375,0,0,0,1.683-2.68.334.334,0,0,0-.489-.389,11.8,11.8,0,0,1-3.127,1.292.79.79,0,0,1-.2.024.829.829,0,0,1-.548-.209,6.394,6.394,0,0,0-4.231-1.6,6.834,6.834,0,0,0-2.026.313,6.2,6.2,0,0,0-3.44,2.687v20.8a16.568,16.568,0,0,0,7.356-4.854,18.115,18.115,0,0,0,3.377-5.655,17.865,17.865,0,0,0,1.148-6.189v-.1a1.089,1.089,0,0,1,.407-.847,12.643,12.643,0,0,0,2.543-2.79A.334.334,0,0,0,269.841,136.984Z" transform="translate(-229.573 -120.541)"/></g></svg>