<svg xmlns="http://www.w3.org/2000/svg" xmlns:xlink="http://www.w3.org/1999/xlink" width="498.122" height="498.14" viewBox="0 0 498.122 498.14"><defs><style>.a{fill:url(#a);}.b{opacity:0.2;}.c{fill:#d0cde1;}.d{fill:#2f2e41;}</style><linearGradient id="a" x1="0.5" x2="0.5" y2="1" gradientUnits="objectBoundingBox"><stop offset="0" stop-color="#2af598"/><stop offset="1" stop-color="#04accb"/></linearGradient></defs><path class="a" d="M760.121,361.061a248.216,248.216,0,0,1-20.058,98.077l-.825,1.9a249.473,249.473,0,0,1-271.4,145.347q-2.244-.4-4.48-.825a246.836,246.836,0,0,1-45.052-13.286q-3.548-1.426-7.044-2.955c-1.592-.693-3.183-1.407-4.76-2.144A249.366,249.366,0,0,1,262,361.061C262,223.51,373.51,112,511.061,112S760.121,223.51,760.121,361.061Z" transform="translate(-262 -112)"/><path class="b" d="M503.6,663.314q-2.244-.4-4.48-.825c-.973-28.229-4.311-86.169-15.7-146.85-6.226-33.211-14.87-67.254-26.859-97.686a304.04,304.04,0,0,0-14.052-30.83c-12.114-22.88-26.807-42.141-44.625-55.191l2.623-3.581q22.228,16.292,39.953,45.745,5.316,8.82,10.213,18.82,5.25,10.7,10.014,22.718,3.04,7.649,5.873,15.828Q478.9,466.973,487.537,512.5q1.912,10.058,3.64,20.61C500.1,587.616,502.79,638.01,503.6,663.314Z" transform="translate(-297.757 -168.929)"/><path class="b" d="M447.99,716.334c-1.592-.693-3.183-1.407-4.76-2.144-1.54-16.727-4.37-37.477-9.542-57.173a187.572,187.572,0,0,0-8.7-25.938c-5.9-13.816-13.544-25.562-23.425-32.805l2.623-3.574c10.346,7.575,18.326,19.549,24.493,33.557,6.949,15.784,11.584,34.154,14.671,51.706C445.639,693,447.084,705.591,447.99,716.334Z" transform="translate(-298.723 -239.015)"/><circle class="b" cx="22.171" cy="22.171" r="22.171" transform="translate(53.182 118.557)"/><circle class="b" cx="22.171" cy="22.171" r="22.171" transform="translate(60.322 309.412)"/><path class="b" d="M483.278,337.269c-4.7,26.525,5.677,50.543,5.677,50.543s18-18.988,22.7-45.513-5.677-50.543-5.677-50.543S487.98,310.744,483.278,337.269Z" transform="translate(-319.904 -159.3)"/><path class="b" d="M369.113,427.521c25.3,9.251,50.723,3.314,50.723,3.314s-15.6-20.936-40.9-30.188-50.723-3.314-50.723-3.314S343.813,418.27,369.113,427.521Z" transform="translate(-279.424 -186.588)"/><path class="b" d="M367.668,660.268c17.733,6.484,35.578,2.254,35.578,2.254s-10.907-14.743-28.64-21.228-35.578-2.254-35.578-2.254S349.935,653.784,367.668,660.268Z" transform="translate(-282.269 -250.326)"/><circle class="c" cx="97.097" cy="97.097" r="97.097" transform="translate(151.452 110.02)"/><path class="c" d="M547.833,483.13s12.137,57.651,12.137,63.72,57.651,33.377,57.651,33.377l51.583-9.1,18.206-54.617s-30.343-45.514-30.343-63.72Z" transform="translate(-337.213 -201.673)"/><path class="d" d="M773.019,565.781l-.825,1.9A249.473,249.473,0,0,1,500.8,713.028q-2.244-.4-4.48-.825a246.836,246.836,0,0,1-45.052-13.286q-3.548-1.426-7.044-2.955c-1.592-.693-3.183-1.407-4.76-2.144a248.764,248.764,0,0,1-40.712-23.786l-11.51-33.387,6.47-4.937,13.308-10.161,14.2-10.839,3.692-2.822,55.714-42.532,4.112-3.139,28.959-22.106.007-.007s31.317,51.028,76.833,35.856,44.521-58.677,44.521-58.677Z" transform="translate(-294.955 -218.643)"/><path class="d" d="M476.881,267.744s30.828-66.794,89.915-51.38,92.484,38.535,95.053,61.656-1.284,57.8-1.284,57.8-6.422-47.526-47.526-37.25-105.329,2.569-105.329,2.569l-10.276,92.484s-11.56-16.7-24.405-6.422S435.777,288.3,476.881,267.744Z" transform="translate(-312.534 -138.854)"/><path class="d" d="M446.867,741.543q-3.548-1.426-7.044-2.955c-1.592-.693-3.183-1.407-4.76-2.144a249.679,249.679,0,0,1-64.542-43.254,87.316,87.316,0,0,1,12.32-13.919h45.516l6.823,22.946Z" transform="translate(-290.555 -261.268)"/><path class="d" d="M855.678,576.32l39.047,6.9A249.015,249.015,0,0,1,852.9,648.481Z" transform="translate(-417.486 -234.179)"/></svg>