<svg xmlns="http://www.w3.org/2000/svg" xmlns:xlink="http://www.w3.org/1999/xlink" width="267.94" height="209.868" viewBox="0 0 267.94 209.868"><defs><style>.a{fill:url(#a);}.b{fill:#4d4d4d;}.c{fill:#3b3b3b;}.d{fill:gray;}.e{fill:#616161;}.f{fill:#ccc;}.g{fill:#adadad;}.h{fill:#2b2b2b;}.i{opacity:0.2;}.j{fill:#ebebeb;}</style><linearGradient id="a" x1="0.5" x2="0.5" y2="1" gradientUnits="objectBoundingBox"><stop offset="0" stop-color="#2af598"/><stop offset="1" stop-color="#0ac3e6"/></linearGradient></defs><g transform="translate(-214 -2497.615)"><path class="a" d="M-1634,414h-77a46.706,46.706,0,0,1-18.295-3.694,46.845,46.845,0,0,1-14.939-10.073,46.846,46.846,0,0,1-10.072-14.939A46.708,46.708,0,0,1-1758,367V323a46.709,46.709,0,0,1,3.693-18.295,46.843,46.843,0,0,1,10.072-14.939,46.843,46.843,0,0,1,14.939-10.072A46.706,46.706,0,0,1-1711,276h77a46.707,46.707,0,0,1,18.295,3.693,46.844,46.844,0,0,1,14.94,10.072,46.843,46.843,0,0,1,10.073,14.939A46.707,46.707,0,0,1-1587,323v44a46.705,46.705,0,0,1-3.693,18.294,46.845,46.845,0,0,1-10.073,14.939,46.846,46.846,0,0,1-14.94,10.073A46.707,46.707,0,0,1-1634,414Zm-64-123a40.742,40.742,0,0,0-15.959,3.222,40.863,40.863,0,0,0-13.032,8.787,40.863,40.863,0,0,0-8.787,13.033A40.743,40.743,0,0,0-1739,332v26a40.741,40.741,0,0,0,3.222,15.959,40.861,40.861,0,0,0,8.787,13.032,40.862,40.862,0,0,0,13.032,8.787A40.742,40.742,0,0,0-1698,399h52a40.745,40.745,0,0,0,15.959-3.222,40.864,40.864,0,0,0,13.032-8.787,40.863,40.863,0,0,0,8.787-13.032A40.741,40.741,0,0,0-1605,358V332a40.743,40.743,0,0,0-3.222-15.959,40.864,40.864,0,0,0-8.787-13.033,40.864,40.864,0,0,0-13.032-8.787A40.745,40.745,0,0,0-1646,291Z" transform="translate(2003 2243)"/><g transform="translate(350.806 2602.001)"><path class="b" d="M127.472,50.076H3.662A3.663,3.663,0,0,0,0,53.738v67.1l64.41,9.233,66.724-9.233v-67.1A3.663,3.663,0,0,0,127.472,50.076Z" transform="translate(0 -50.076)"/><path class="c" d="M214.9,50.076h-47.05l-50.321,83.178H214.9a3.663,3.663,0,0,0,3.662-3.665V53.738A3.662,3.662,0,0,0,214.9,50.076Z" transform="translate(-87.427 -50.076)"/><path class="d" d="M225.809,367.734l2.746,22.7H199.727l2.746-22.7Z" transform="translate(-148.573 -286.375)"/><path class="e" d="M230.315,382.8l-1.822-15.063H205.157L203.335,382.8Z" transform="translate(-151.257 -286.375)"/><path class="f" d="M37.61,326.369H0v8.749a3.663,3.663,0,0,0,3.662,3.665h123.81a3.663,3.663,0,0,0,3.662-3.665v-8.749Z" transform="translate(0 -255.605)"/><path class="g" d="M125.038,326.369l-7.51,12.413H214.9a3.663,3.663,0,0,0,3.662-3.665v-8.748Z" transform="translate(-87.427 -255.605)"/><path class="f" d="M203.449,450.765H154.117a1.921,1.921,0,1,1,0-3.842h49.332a1.921,1.921,0,0,1,0,3.842Z" transform="translate(-113.215 -345.282)"/></g><g transform="translate(363.62 2497.615) rotate(1)"><path class="f" d="M30.154,0H1.863A1.863,1.863,0,0,0,0,1.863V7.172l4.175,19L0,45.066v5.311a1.861,1.861,0,0,0,1.861,1.861h28.3a1.861,1.861,0,0,0,1.861-1.861V45.066L28.225,26.119,32.017,7.172V1.863A1.863,1.863,0,0,0,30.154,0Z" transform="translate(32.793 24.525)"/><path class="g" d="M1.863,0A1.863,1.863,0,0,0,0,1.863V50.377a1.861,1.861,0,0,0,1.861,1.861H8.875a5.929,5.929,0,0,0,3.111-5.219V0Z" transform="translate(32.793 24.525)"/><g transform="translate(32.793 31.697)"><rect class="c" width="1.499" height="7.571" transform="translate(15.259 37.495)"/><path class="c" d="M0,0V37.894H32.017V0Z"/></g><path class="h" d="M0,0V37.894H11.986V0Z" transform="translate(32.793 31.697)"/><g transform="translate(0 0)"><path class="f" d="M40.373,5.93V8.5L20.186,11.6,0,8.5V5.93A5.929,5.929,0,0,1,5.93,0H34.443A5.93,5.93,0,0,1,40.373,5.93Z" transform="translate(0 0)"/><path class="f" d="M20.186,0,40.374,4.866V7.79a5.931,5.931,0,0,1-5.93,5.93H5.93A5.93,5.93,0,0,1,0,7.79V4.866Z" transform="translate(0 52.153)"/></g><path class="g" d="M25.633,0H20.421L0,65.873H25.633a5.931,5.931,0,0,0,5.93-5.93V5.93A5.931,5.931,0,0,0,25.633,0Z" transform="translate(8.811 0)"/><path class="d" d="M2.174,4.348A2.174,2.174,0,1,1,4.348,2.174,2.176,2.176,0,0,1,2.174,4.348Z" transform="translate(18.057 59.288)"/><rect class="b" width="40.374" height="48.519" transform="translate(0 8.5)"/><path class="c" d="M0,48.519H28.818V0H15.041Z" transform="translate(11.556 8.5)"/></g><g transform="translate(214 2500.113)"><path class="f" d="M105.719,79.149v49.919l-43.553,2.94-43.124-2.94V79.149a4.725,4.725,0,0,1,4.725-4.725h77.227A4.725,4.725,0,0,1,105.719,79.149Z" transform="translate(-15.559 -74.424)"/><path class="g" d="M254.114,74.423H230.023l-23.587,54.644h52.4V79.148A4.725,4.725,0,0,0,254.114,74.423Z" transform="translate(-168.679 -74.423)"/><path class="d" d="M93.645,373.187v7.052a4.725,4.725,0,0,1-4.725,4.725H4.725A4.725,4.725,0,0,1,0,380.239v-7.052H93.645Z" transform="translate(0 -318.543)"/><path class="e" d="M93.1,373.188v4.967a4.725,4.725,0,0,1-4.725,4.725H4.182A4.724,4.724,0,0,1,.022,380.4a4.724,4.724,0,0,0,4.721,4.569h84.2a4.725,4.725,0,0,0,4.725-4.725v-7.052Z" transform="translate(-0.018 -318.544)"/><path class="b" d="M185.079,373.188H211.02a5.881,5.881,0,0,1-5.881,5.881H190.962A5.883,5.883,0,0,1,185.079,373.188Z" transform="translate(-151.228 -318.544)"/><g class="i" transform="translate(33.673 54.644)"><path d="M184.3,373.654c-.012-.153-.02-.308-.02-.465H184.1C184.163,373.347,184.228,373.5,184.3,373.654Z" transform="translate(-184.103 -373.189)"/></g><rect class="j" width="72.546" height="39.571" transform="translate(10.55 7.396)"/><path class="f" d="M224.554,154.435h42.024v-39.57H241.635Z" transform="translate(-183.483 -107.468)"/></g><g transform="translate(232.221 2607.507)"><path class="f" d="M59.483,0H6.083A6.082,6.082,0,0,0,0,6.083v1.95L4.782,42.691,0,77.073v1.95a6.082,6.082,0,0,0,6.083,6.083h53.4a6.082,6.082,0,0,0,6.083-6.083v-1.95L60.23,42.691,65.566,8.033V6.083A6.082,6.082,0,0,0,59.483,0Z" transform="translate(0 0)"/><path class="g" d="M52.811,0H33.182L0,85.106H52.811a6.082,6.082,0,0,0,6.083-6.083V6.083A6.082,6.082,0,0,0,52.811,0Z" transform="translate(6.672 0)"/><rect class="b" width="65.566" height="69.04" transform="translate(0 8.033)"/><path class="c" d="M0,69.04H55.763V0H26.918Z" transform="translate(9.804 8.033)"/></g></g></svg>